<svg xmlns="http://www.w3.org/2000/svg" viewBox="0 0 501.605 414.335" id="doctor-checking-woman-with-temperature-and-virus-measuring-machine"><g><g><path fill="#dae0e0" d="M43.839 44.654h292.014v368.68H43.839z"></path><path fill="#b1b2b2" d="M102.765 413.335h-1.228V45.269H44.448v368.066h-1.229V44.041h59.546v369.294z"></path><path fill="#b1b2b2" d="M161.083 413.335h-1.229V45.269h-57.089v368.066h-1.228V44.041h59.546v369.294z"></path><path fill="#b1b2b2" d="M43.834 44.041h292.018v1.228H43.834zM43.834 102.358h292.018v1.228H43.834z"></path><path fill="#b1b2b2" d="M43.834 102.358h292.018v1.228H43.834zM43.834 160.675h292.018v1.228H43.834z"></path><path fill="#b1b2b2" d="M43.834 160.675h292.018v1.228H43.834zM43.834 218.992h292.018v1.229H43.834z"></path><path fill="#b1b2b2" d="M43.834 218.992h292.018v1.229H43.834zM43.834 277.31h292.018v1.229H43.834z"></path><path fill="#b1b2b2" d="M43.834 277.31h292.018v1.229H43.834zM43.834 335.628h292.018v1.229H43.834z"></path><path fill="#b1b2b2" d="M43.834 335.628h292.018v1.229H43.834zM43.834 393.945h292.018v1.229H43.834z"></path><path fill="#b1b2b2" d="M219.83 413.335h-1.229V45.269h-57.076v368.066h-1.228V44.041h59.533v369.294z"></path><path fill="#b1b2b2" d="M278.148 413.335h-1.228V45.269h-57.09v368.066h-1.229V44.041h59.547v369.294z"></path><path fill="#b1b2b2" d="M336.465 413.335h-1.228V45.269h-57.089v368.066h-1.228V44.041h59.545v369.294z"></path><path fill="#7dbcbc" d="M365.125 120.168h136.48v6.389h-136.48z"></path><path fill="#c0f1f2" d="M434.527 86.625h10.188a1.162 1.162 0 0 1 1.162 1.162v32.38h-12.512v-32.38a1.162 1.162 0 0 1 1.162-1.162Z"></path><path fill="#c0f1f2" d="M438.713 80.76h1.817a1.162 1.162 0 0 1 1.162 1.163v4.813h-4.141v-4.813a1.162 1.162 0 0 1 1.162-1.163ZM392.102 126.557h3.55v12.542h-3.55zM476.936 126.557h3.55v12.542h-3.55zM386.342 98.338h19.506a1.162 1.162 0 0 1 1.162 1.162v20.668h-21.83V99.5a1.162 1.162 0 0 1 1.162-1.162Z"></path><path fill="#7dbcbc" d="M385.18 103.83h21.829v.493H385.18zM396.095 112.487a3.234 3.234 0 1 1 3.234-3.234 3.238 3.238 0 0 1-3.234 3.234Zm0-5.975a2.741 2.741 0 1 0 2.742 2.74 2.745 2.745 0 0 0-2.742-2.74ZM433.365 97.204h12.513v.493h-12.513z"></path><path fill="#c0f1f2" d="M466.079 86.625h10.188a1.162 1.162 0 0 1 1.162 1.162v32.38h-12.512v-32.38a1.162 1.162 0 0 1 1.162-1.162Z"></path><path fill="#c0f1f2" d="M470.264 80.76h1.817a1.162 1.162 0 0 1 1.162 1.163v4.813h-4.14v-4.813a1.162 1.162 0 0 1 1.161-1.163Z"></path><path fill="#7dbcbc" d="M464.917 97.204h12.513v.493h-12.513z"></path><path fill="#c0f1f2" d="M449.317 80.185h12.59a1.162 1.162 0 0 1 1.162 1.163v38.82h-14.914v-38.82a1.162 1.162 0 0 1 1.162-1.163Z"></path><path fill="#c0f1f2" d="M454.306 73.196h2.612a1.162 1.162 0 0 1 1.162 1.162v5.96h-4.936v-5.96a1.162 1.162 0 0 1 1.162-1.162Z"></path><path fill="#7dbcbc" d="M448.155 92.796h14.914v.588h-14.914z"></path><circle cx="277.232" cy="207.71" r="9.322" fill="#57c984"></circle><path fill="#4fba75" d="M270.066 211.733a9.322 9.322 0 0 1 3.092-12.407c-.165.08-.329.165-.49.255a9.322 9.322 0 1 0 9.128 16.258c.161-.091.318-.187.472-.286a9.322 9.322 0 0 1-12.202-3.82Z"></path><ellipse cx="272.71" cy="204.831" fill="#4fba75" rx="1.06" ry=".795" transform="rotate(-50.807 272.71 204.831)"></ellipse><ellipse cx="278.231" cy="206.989" fill="#4fba75" rx="1.225" ry=".928" transform="rotate(-29.313 278.231 206.99)"></ellipse><ellipse cx="283.277" cy="207.378" fill="#4fba75" rx="1.202" ry=".981" transform="rotate(-9.007 283.277 207.378)"></ellipse><ellipse cx="279.565" cy="213.413" fill="#4fba75" rx=".981" ry="1.246" transform="rotate(-59.313 279.565 213.413)"></ellipse><circle cx="272.596" cy="210.366" r=".742" fill="#4fba75"></circle><ellipse cx="277.743" cy="200.424" fill="#4fba75" rx="1.034" ry="1.378" transform="rotate(-74.314 277.74 200.424)"></ellipse><circle cx="275.736" cy="213.74" r=".61" fill="#4fba75"></circle><circle cx="281.42" cy="203.509" r=".61" fill="#4fba75"></circle><path fill="#57c984" d="M266.86 200.152a6.443 6.443 0 0 1 2.39 2.74l1.818-2.178s-1.124.382-3.52-1.556ZM278.823 195.05a6.443 6.443 0 0 1-1.305 3.393l2.775.589s-.863-.816-.27-3.84ZM269.295 212.166a9.436 9.436 0 0 1-.425-.857c-.121.412-.607 1.39-2.557 2.629l.723.969a6.33 6.33 0 0 1 3.209-1.36 9.365 9.365 0 0 1-.95-1.381ZM286.554 207.664a9.349 9.349 0 0 1-.285 2.322 6.57 6.57 0 0 1 3.297-.039l.123-1.203a6.163 6.163 0 0 1-3.135-1.08ZM287.588 214.945a6.443 6.443 0 0 1-2.412-2.721l-1.8 2.192s1.121-.39 3.532 1.528ZM280.936 219.935a6.443 6.443 0 0 1-.197-3.63l-2.773.598s1.121.391 1.816 3.393ZM288.855 202.722a6.443 6.443 0 0 1-3.588.589l.894 2.692s.268-1.157 3.177-2.172ZM283.63 200.927a8.501 8.501 0 0 1 1.444-2.104l-.961-.734a5.416 5.416 0 0 1-1.91 1.733 9.266 9.266 0 0 1 1.427 1.105ZM272.822 215.922a8.922 8.922 0 0 1-.723 2.26l1.137.413a5.108 5.108 0 0 1 1.128-2.016 9.356 9.356 0 0 1-1.542-.657ZM268.104 207.427a9.344 9.344 0 0 1 .18-1.645 9.134 9.134 0 0 1-2.277-.167l-.127 1.202a5.106 5.106 0 0 1 2.224.61ZM273.027 199.392a9.327 9.327 0 0 1 1.47-.594 3.67 3.67 0 0 1-1.261-1.844l-.684.337a3.95 3.95 0 0 1 .475 2.1Z"></path><path fill="#4fba75" d="M266.484 200.64a.331.331 0 0 1-.43-.484l1.27-1.737a.331.331 0 1 1 .534.39l-1.27 1.738a.328.328 0 0 1-.104.093ZM280.6 195.495a.33.33 0 0 1-.196.04l-2.14-.217a.331.331 0 0 1 .066-.66l2.14.218a.331.331 0 0 1 .13.619ZM289.875 210.764a.331.331 0 0 1-.492-.32l.2-2.142a.331.331 0 1 1 .66.061l-.2 2.143a.331.331 0 0 1-.168.258ZM286.962 216.767a.331.331 0 0 1-.436-.476l1.215-1.775a.331.331 0 0 1 .547.374l-1.215 1.775a.33.33 0 0 1-.111.102ZM281.522 220.138a.335.335 0 0 1-.037.018l-1.992.814a.331.331 0 1 1-.25-.613l1.992-.814a.331.331 0 0 1 .287.595ZM273.782 219.13a.331.331 0 0 1-.3.013l-1.958-.89a.331.331 0 0 1 .274-.604l1.958.891a.331.331 0 0 1 .026.59ZM267.427 215.666a.331.331 0 0 1-.43-.094l-1.266-1.74a.331.331 0 0 1 .536-.39l1.266 1.74a.331.331 0 0 1-.072.462.304.304 0 0 1-.034.022ZM265.95 207.597a.331.331 0 0 1-.49-.33l.267-2.135a.331.331 0 1 1 .657.083l-.268 2.134a.33.33 0 0 1-.166.248ZM285.543 199.523a.331.331 0 0 1-.394-.052l-1.538-1.504a.331.331 0 1 1 .463-.474l1.538 1.504a.331.331 0 0 1-.07.526ZM289.774 204.54l-.024.012a.331.331 0 0 1-.44-.164l-.896-1.955a.331.331 0 0 1 .603-.276l.896 1.955a.331.331 0 0 1-.139.427ZM273.591 196.917l-.026.013-1.249.562a.331.331 0 1 1-.271-.605l1.248-.561a.331.331 0 0 1 .298.59Z"></path><circle cx="262.345" cy="93.721" r="9.245" fill="#57c984"></circle><path fill="#4fba75" d="M256.975 87.59a9.244 9.244 0 0 1 12.672.462 9.36 9.36 0 0 0-.348-.423 9.245 9.245 0 1 0-13.908 12.183c.121.139.247.271.374.4a9.244 9.244 0 0 1 1.21-12.622Z"></path><ellipse cx="264.214" cy="88.744" fill="#4fba75" rx=".788" ry="1.051" transform="rotate(-62.712 264.214 88.744)"></ellipse><ellipse cx="263.249" cy="94.543" fill="#4fba75" rx=".92" ry="1.214" transform="rotate(-41.218 263.25 94.543)"></ellipse><ellipse cx="263.904" cy="99.519" fill="#4fba75" rx=".972" ry="1.193" transform="rotate(-20.912 263.904 99.52)"></ellipse><ellipse cx="257.288" cy="97.152" fill="#4fba75" rx="1.235" ry=".972" transform="rotate(-71.218 257.288 97.152)"></ellipse><circle cx="258.819" cy="89.766" r=".736" fill="#4fba75"></circle><ellipse cx="269.519" cy="92.727" fill="#4fba75" rx="1.367" ry="1.025" transform="rotate(-86.218 269.52 92.727)"></ellipse><circle cx="256.188" cy="93.503" r=".605" fill="#4fba75"></circle><circle cx="267.278" cy="96.926" r=".605" fill="#4fba75"></circle><path fill="#57c984" d="M267.558 82.111a6.39 6.39 0 0 1-2.17 2.88l2.485 1.318s-.6-1.013.79-3.734ZM274.956 92.675a6.389 6.389 0 0 1-3.56-.572l-.004 2.813s.616-1.004 3.67-1.047ZM256.398 86.931a9.361 9.361 0 0 1 .744-.588c-.424-.033-1.473-.304-3.074-1.943l-.792.9a6.278 6.278 0 0 1 1.976 2.835 9.288 9.288 0 0 1 1.146-1.204ZM264.296 102.757a9.271 9.271 0 0 1-2.31.199 6.516 6.516 0 0 1 .711 3.191l1.193-.127a6.111 6.111 0 0 1 .406-3.263ZM257.443 105.25a6.389 6.389 0 0 1 2.147-2.897l-2.495-1.298s.608 1.008-.76 3.74ZM251.24 99.816a6.389 6.389 0 0 1 3.482-.933l-1.147-2.57s-.15 1.169-2.92 2.457ZM269.563 103.98a6.389 6.389 0 0 1-1.305-3.362l-2.43 1.418s1.177.024 2.758 2.639ZM270.236 98.542a8.43 8.43 0 0 1 2.337.97l.515-1.082a5.37 5.37 0 0 1-2.072-1.498 9.19 9.19 0 0 1-.78 1.61ZM253.474 91.122a8.847 8.847 0 0 1-2.341-.24l-.167 1.188a5.066 5.066 0 0 1 2.187.682 9.279 9.279 0 0 1 .321-1.63ZM260.752 84.806a9.268 9.268 0 0 1 1.634-.163 9.058 9.058 0 0 1-.304-2.243l-1.193.122a5.064 5.064 0 0 1-.137 2.284ZM269.557 87.939a9.25 9.25 0 0 1 .877 1.305 3.64 3.64 0 0 1 1.53-1.601l-.466-.594a3.918 3.918 0 0 1-1.941.89Z"></path><path fill="#4fba75" d="M267.007 81.845a.328.328 0 0 1 .382-.516l1.945.877a.328.328 0 1 1-.27.599l-1.945-.877a.325.325 0 0 1-.112-.083ZM274.887 94.49a.328.328 0 0 1-.079-.182l-.227-2.121a.329.329 0 0 1 .653-.07l.227 2.121a.329.329 0 0 1-.574.252ZM261.968 106.614a.329.329 0 0 1 .21-.542l2.12-.245a.329.329 0 0 1 .075.652l-2.12.245a.328.328 0 0 1-.285-.11ZM255.547 105.015a.329.329 0 0 1 .372-.52l1.972.816a.329.329 0 0 1-.251.607l-1.972-.816a.328.328 0 0 1-.121-.087ZM251.163 100.427a.33.33 0 0 1-.025-.033l-1.198-1.766a.328.328 0 1 1 .544-.368l1.198 1.766a.329.329 0 0 1-.52.4ZM250.557 92.71a.328.328 0 0 1-.074-.289l.465-2.082a.329.329 0 0 1 .64.142l-.463 2.083a.329.329 0 0 1-.568.145ZM252.62 85.835a.329.329 0 0 1 .003-.437l1.429-1.584a.329.329 0 0 1 .488.44l-1.43 1.584a.328.328 0 0 1-.463.024.3.3 0 0 1-.027-.027ZM260.147 82.75a.329.329 0 0 1 .22-.544l2.126-.176a.329.329 0 1 1 .054.654l-2.126.177a.328.328 0 0 1-.274-.11ZM271.99 100.11a.329.329 0 0 1-.03-.392l1.144-1.8a.329.329 0 1 1 .555.352l-1.145 1.8a.329.329 0 0 1-.524.04ZM267.988 105.243l-.017-.02a.329.329 0 0 1 .068-.46l1.715-1.27a.329.329 0 0 1 .39.528l-1.714 1.27a.329.329 0 0 1-.442-.048ZM272.074 87.98l-.019-.023-.8-1.096a.329.329 0 1 1 .531-.388l.8 1.097a.329.329 0 0 1-.512.41Z"></path><circle cx="223.683" cy="173.609" r="6.494" fill="#57c984"></circle><path fill="#4fba75" d="M218.692 176.412a6.493 6.493 0 0 1 2.153-8.642 6.566 6.566 0 0 0-.34.177 6.494 6.494 0 1 0 6.357 11.325c.113-.064.222-.13.33-.2a6.493 6.493 0 0 1-8.5-2.66Z"></path><ellipse cx="220.534" cy="171.604" fill="#4fba75" rx=".738" ry=".554" transform="rotate(-50.807 220.534 171.604)"></ellipse><ellipse cx="224.38" cy="173.107" fill="#4fba75" rx=".853" ry=".646" transform="rotate(-29.313 224.38 173.107)"></ellipse><ellipse cx="227.894" cy="173.378" fill="#4fba75" rx=".838" ry=".683" transform="rotate(-9.007 227.894 173.378)"></ellipse><ellipse cx="225.309" cy="177.582" fill="#4fba75" rx=".683" ry=".868" transform="rotate(-59.313 225.309 177.582)"></ellipse><circle cx="220.454" cy="175.459" r=".517" fill="#4fba75"></circle><ellipse cx="224.04" cy="168.535" fill="#4fba75" rx=".72" ry=".96" transform="rotate(-74.313 224.04 168.535)"></ellipse><circle cx="222.642" cy="177.809" r=".425" fill="#4fba75"></circle><circle cx="226.601" cy="170.683" r=".425" fill="#4fba75"></circle><path fill="#57c984" d="M216.46 168.345a4.488 4.488 0 0 1 1.664 1.908l1.266-1.517s-.783.266-2.451-1.084ZM224.792 164.79a4.488 4.488 0 0 1-.91 2.364l1.934.41s-.601-.568-.188-2.674ZM218.155 176.713a6.573 6.573 0 0 1-.296-.596c-.084.286-.423.967-1.781 1.83l.503.676a4.41 4.41 0 0 1 2.236-.948 6.523 6.523 0 0 1-.662-.962ZM230.177 173.577a6.512 6.512 0 0 1-.199 1.618 4.577 4.577 0 0 1 2.297-.027l.086-.838a4.293 4.293 0 0 1-2.184-.753ZM230.897 178.649a4.488 4.488 0 0 1-1.68-1.896l-1.254 1.527s.781-.271 2.46 1.065ZM226.264 182.125a4.488 4.488 0 0 1-.137-2.529l-1.932.417s.78.272 1.265 2.363ZM231.78 170.135a4.488 4.488 0 0 1-2.5.41l.623 1.876s.187-.806 2.213-1.514ZM228.14 168.885a5.922 5.922 0 0 1 1.006-1.466l-.67-.511a3.772 3.772 0 0 1-1.33 1.207 6.454 6.454 0 0 1 .994.77ZM220.612 179.33a6.215 6.215 0 0 1-.504 1.574l.792.287a3.558 3.558 0 0 1 .786-1.404 6.518 6.518 0 0 1-1.074-.457ZM217.326 173.412a6.51 6.51 0 0 1 .125-1.146 6.362 6.362 0 0 1-1.586-.116l-.089.837a3.557 3.557 0 0 1 1.55.425ZM220.754 167.815a6.498 6.498 0 0 1 1.024-.413 2.557 2.557 0 0 1-.878-1.285l-.476.235a2.752 2.752 0 0 1 .33 1.463Z"></path><path fill="#4fba75" d="M216.197 168.685a.23.23 0 0 1-.3-.338l.885-1.21a.23.23 0 1 1 .372.273l-.884 1.21a.228.228 0 0 1-.073.065ZM226.029 165.1a.23.23 0 0 1-.136.029l-1.491-.151a.23.23 0 0 1 .046-.46l1.491.152a.23.23 0 0 1 .09.43ZM232.49 175.737a.23.23 0 0 1-.342-.223l.139-1.492a.23.23 0 1 1 .46.042l-.14 1.493a.23.23 0 0 1-.117.18ZM230.46 179.918a.23.23 0 0 1-.303-.331l.847-1.237a.23.23 0 0 1 .38.26l-.846 1.237a.23.23 0 0 1-.077.071ZM226.672 182.267l-.026.012-1.387.567a.23.23 0 1 1-.175-.427l1.388-.567a.23.23 0 0 1 .2.415ZM221.28 181.565a.23.23 0 0 1-.208.009l-1.365-.621a.23.23 0 0 1 .191-.42l1.365.62a.23.23 0 0 1 .017.412ZM216.854 179.151a.23.23 0 0 1-.3-.066l-.881-1.211a.23.23 0 0 1 .373-.272l.882 1.212a.23.23 0 0 1-.05.322ZM215.825 173.53a.23.23 0 0 1-.342-.23l.187-1.486a.23.23 0 1 1 .457.057l-.186 1.487a.23.23 0 0 1-.116.173ZM229.473 167.907a.23.23 0 0 1-.275-.037l-1.071-1.047a.23.23 0 1 1 .323-.33l1.071 1.047a.23.23 0 0 1-.048.367ZM232.42 171.4l-.017.01a.23.23 0 0 1-.306-.114l-.624-1.363a.23.23 0 0 1 .42-.192l.624 1.362a.23.23 0 0 1-.097.298ZM221.148 166.091l-.019.01-.87.39a.23.23 0 1 1-.189-.42l.87-.391a.23.23 0 0 1 .208.411Z"></path><circle cx="307.358" cy="79.936" r="8.099" fill="#57c984"></circle><path fill="#4fba75" d="M302.654 74.565a8.098 8.098 0 0 1 11.1.405 8.191 8.191 0 0 0-.304-.37 8.099 8.099 0 1 0-12.184 10.672c.106.122.216.238.328.351a8.098 8.098 0 0 1 1.06-11.058Z"></path><ellipse cx="308.995" cy="75.576" fill="#4fba75" rx=".691" ry=".921" transform="rotate(-62.712 308.995 75.576)"></ellipse><ellipse cx="308.15" cy="80.656" fill="#4fba75" rx=".806" ry="1.064" transform="rotate(-41.218 308.15 80.656)"></ellipse><ellipse cx="308.724" cy="85.015" fill="#4fba75" rx=".852" ry="1.045" transform="rotate(-20.912 308.724 85.015)"></ellipse><ellipse cx="302.928" cy="82.941" fill="#4fba75" rx="1.082" ry=".852" transform="rotate(-71.218 302.928 82.941)"></ellipse><circle cx="304.27" cy="76.471" r=".645" fill="#4fba75"></circle><ellipse cx="313.643" cy="79.065" fill="#4fba75" rx="1.197" ry=".898" transform="rotate(-86.218 313.643 79.065)"></ellipse><circle cx="301.965" cy="79.745" r=".53" fill="#4fba75"></circle><circle cx="311.68" cy="82.744" r=".53" fill="#4fba75"></circle><path fill="#57c984" d="M311.925 69.765a5.597 5.597 0 0 1-1.901 2.523l2.177 1.155s-.526-.888.692-3.271ZM318.406 79.02a5.597 5.597 0 0 1-3.118-.502l-.004 2.465s.54-.88 3.215-.917ZM302.148 73.988a8.195 8.195 0 0 1 .652-.515c-.371-.03-1.29-.267-2.693-1.703l-.694.788a5.5 5.5 0 0 1 1.732 2.485 8.136 8.136 0 0 1 1.003-1.055ZM309.068 87.852a8.122 8.122 0 0 1-2.025.174 5.709 5.709 0 0 1 .624 2.796l1.045-.111a5.354 5.354 0 0 1 .356-2.859ZM303.064 90.036a5.597 5.597 0 0 1 1.881-2.538l-2.186-1.137s.533.883-.666 3.276ZM297.63 85.276a5.597 5.597 0 0 1 3.05-.818l-1.004-2.25s-.132 1.023-2.56 2.151ZM313.681 88.923a5.597 5.597 0 0 1-1.143-2.945l-2.129 1.243s1.032.02 2.417 2.31ZM314.271 84.16a7.386 7.386 0 0 1 2.048.85l.45-.949a4.705 4.705 0 0 1-1.814-1.312 8.05 8.05 0 0 1-.684 1.41ZM299.587 77.66a7.751 7.751 0 0 1-2.051-.21l-.146 1.04a4.438 4.438 0 0 1 1.915.597 8.13 8.13 0 0 1 .282-1.428ZM305.963 72.126a8.119 8.119 0 0 1 1.431-.142 7.935 7.935 0 0 1-.266-1.966l-1.045.108a4.436 4.436 0 0 1-.12 2ZM313.676 74.87a8.104 8.104 0 0 1 .768 1.144 3.189 3.189 0 0 1 1.341-1.403l-.409-.52a3.432 3.432 0 0 1-1.7.78Z"></path><path fill="#4fba75" d="M311.442 69.532a.288.288 0 0 1 .335-.452l1.704.768a.288.288 0 1 1-.237.525l-1.704-.768a.285.285 0 0 1-.098-.073ZM318.346 80.61a.287.287 0 0 1-.07-.16l-.199-1.858a.288.288 0 0 1 .573-.061l.199 1.858a.288.288 0 0 1-.503.22ZM307.028 91.231a.288.288 0 0 1 .184-.475l1.857-.215a.288.288 0 0 1 .066.572l-1.857.215a.288.288 0 0 1-.25-.097ZM301.403 89.83a.288.288 0 0 1 .326-.456l1.727.715a.288.288 0 0 1-.22.532l-1.727-.715a.287.287 0 0 1-.106-.076ZM297.562 85.81a.291.291 0 0 1-.022-.028l-1.049-1.547a.288.288 0 1 1 .477-.323l1.049 1.547a.288.288 0 0 1-.455.352ZM297.032 79.05a.288.288 0 0 1-.065-.253l.407-1.824a.288.288 0 0 1 .562.125l-.407 1.824a.288.288 0 0 1-.497.128ZM298.838 73.027a.288.288 0 0 1 .003-.382l1.252-1.388a.288.288 0 0 1 .427.385l-1.251 1.389a.288.288 0 0 1-.407.02.263.263 0 0 1-.024-.024ZM305.432 70.325a.288.288 0 0 1 .193-.476l1.863-.155a.288.288 0 0 1 .048.574l-1.863.154a.287.287 0 0 1-.24-.097ZM315.807 85.534a.288.288 0 0 1-.026-.344l1.003-1.577a.288.288 0 1 1 .486.308l-1.003 1.578a.288.288 0 0 1-.46.035ZM312.302 90.03l-.015-.019a.288.288 0 0 1 .06-.402l1.502-1.113a.288.288 0 1 1 .342.463l-1.502 1.112a.288.288 0 0 1-.387-.041ZM315.881 74.907l-.016-.02-.701-.96a.288.288 0 1 1 .465-.34l.7.96a.288.288 0 0 1-.448.36Z"></path><circle cx="262.994" cy="35.601" r="13.773" fill="#57c984"></circle><path fill="#4fba75" d="M254.994 26.468a13.772 13.772 0 0 1 18.878.688 13.947 13.947 0 0 0-.518-.63 13.773 13.773 0 1 0-20.72 18.15c.18.206.368.404.557.597a13.772 13.772 0 0 1 1.803-18.805Z"></path><ellipse cx="265.778" cy="28.187" fill="#4fba75" rx="1.175" ry="1.566" transform="rotate(-62.712 265.778 28.187)"></ellipse><ellipse cx="264.341" cy="36.826" fill="#4fba75" rx="1.37" ry="1.809" transform="rotate(-41.218 264.341 36.826)"></ellipse><ellipse cx="265.317" cy="44.239" fill="#4fba75" rx="1.449" ry="1.777" transform="rotate(-20.912 265.317 44.24)"></ellipse><ellipse cx="255.461" cy="40.712" fill="#4fba75" rx="1.84" ry="1.449" transform="rotate(-71.218 255.46 40.712)"></ellipse><circle cx="257.742" cy="29.709" r="1.096" fill="#4fba75"></circle><ellipse cx="273.682" cy="34.12" fill="#4fba75" rx="2.036" ry="1.527" transform="rotate(-86.218 273.682 34.12)"></ellipse><circle cx="253.822" cy="35.277" r=".901" fill="#4fba75"></circle><circle cx="270.344" cy="40.376" r=".901" fill="#4fba75"></circle><path fill="#57c984" d="M270.76 18.305s-.414 1.82-3.233 4.29l3.702 1.964s-.894-1.51 1.178-5.562ZM281.782 34.043s-1.803.485-5.303-.852l-.006 4.191s.916-1.496 5.468-1.56ZM254.134 25.486a13.937 13.937 0 0 1 1.109-.876c-.632-.05-2.194-.454-4.58-2.895l-1.18 1.34s1.527.94 2.944 4.225a13.836 13.836 0 0 1 1.707-1.794ZM265.901 49.063a13.812 13.812 0 0 1-3.443.296 9.708 9.708 0 0 1 1.061 4.755l1.776-.19s-.466-1.642.606-4.86ZM255.692 52.777s.4-1.823 3.199-4.315l-3.718-1.935s.906 1.502-1.133 5.572ZM246.45 44.682s1.447-1.18 5.188-1.39l-1.709-3.828s-.224 1.74-4.351 3.66ZM273.747 50.884s-1.33-1.31-1.944-5.007l-3.62 2.113s1.754.035 4.109 3.93ZM274.75 42.784a12.56 12.56 0 0 1 3.482 1.446l.767-1.614a8.001 8.001 0 0 1-3.087-2.231 13.69 13.69 0 0 1-1.162 2.399ZM249.78 31.73a13.18 13.18 0 0 1-3.49-.357l-.248 1.769a7.547 7.547 0 0 1 3.258 1.016 13.824 13.824 0 0 1 .48-2.429ZM260.621 22.32a13.807 13.807 0 0 1 2.434-.242 13.494 13.494 0 0 1-.452-3.342l-1.777.182a7.544 7.544 0 0 1-.205 3.402ZM273.738 26.987a13.78 13.78 0 0 1 1.306 1.944 5.423 5.423 0 0 1 2.281-2.385l-.696-.885a5.836 5.836 0 0 1-2.89 1.326Z"></path><path fill="#4fba75" d="M269.94 17.91a.49.49 0 0 1 .568-.77l2.898 1.306a.49.49 0 1 1-.402.892l-2.898-1.306a.484.484 0 0 1-.167-.123ZM281.68 36.746a.488.488 0 0 1-.119-.27l-.338-3.16a.49.49 0 0 1 .973-.104l.339 3.16a.49.49 0 0 1-.855.374ZM262.433 54.81a.49.49 0 0 1 .312-.809l3.158-.365a.49.49 0 0 1 .112.973l-3.158.365a.49.49 0 0 1-.424-.164ZM252.867 52.427a.49.49 0 0 1 .555-.775l2.937 1.216a.49.49 0 0 1-.375.904l-2.937-1.216a.488.488 0 0 1-.18-.129ZM246.335 45.592a.494.494 0 0 1-.037-.049l-1.784-2.63a.49.49 0 1 1 .81-.55l1.784 2.631a.49.49 0 0 1-.773.598ZM245.433 34.094a.49.49 0 0 1-.11-.429l.692-3.103a.49.49 0 0 1 .955.213l-.691 3.103a.49.49 0 0 1-.846.216ZM248.506 23.852a.49.49 0 0 1 .005-.65l2.128-2.36a.49.49 0 0 1 .727.655l-2.128 2.361a.49.49 0 0 1-.692.036.448.448 0 0 1-.04-.042ZM259.72 19.257a.49.49 0 0 1 .327-.81l3.168-.263a.49.49 0 1 1 .08.975l-3.167.264a.488.488 0 0 1-.409-.166ZM277.362 45.12a.49.49 0 0 1-.044-.584l1.705-2.682a.49.49 0 1 1 .826.525l-1.705 2.682a.49.49 0 0 1-.782.06ZM271.4 52.767a.573.573 0 0 1-.025-.032.49.49 0 0 1 .102-.684l2.555-1.892a.49.49 0 0 1 .582.787l-2.554 1.891a.49.49 0 0 1-.66-.07ZM277.488 27.049l-.028-.034-1.192-1.634a.49.49 0 1 1 .791-.577l1.192 1.634a.49.49 0 0 1-.763.611Z"></path><circle cx="239.877" cy="226.188" r="13.773" fill="#57c984"></circle><path fill="#4fba75" d="M229.29 232.133a13.772 13.772 0 0 1 4.568-18.33c-.243.118-.485.242-.724.376a13.773 13.773 0 1 0 13.486 24.019c.24-.135.47-.277.699-.423a13.772 13.772 0 0 1-18.029-5.642Z"></path><ellipse cx="233.197" cy="221.935" fill="#4fba75" rx="1.566" ry="1.175" transform="rotate(-50.807 233.197 221.935)"></ellipse><ellipse cx="241.354" cy="225.123" fill="#4fba75" rx="1.809" ry="1.37" transform="rotate(-29.314 241.35 225.123)"></ellipse><ellipse cx="248.809" cy="225.697" fill="#4fba75" rx="1.777" ry="1.449" transform="rotate(-9.007 248.815 225.702)"></ellipse><ellipse cx="243.325" cy="234.614" fill="#4fba75" rx="1.449" ry="1.84" transform="rotate(-59.313 243.325 234.614)"></ellipse><circle cx="233.028" cy="230.112" r="1.096" fill="#4fba75"></circle><ellipse cx="240.633" cy="215.425" fill="#4fba75" rx="1.527" ry="2.036" transform="rotate(-74.313 240.633 215.425)"></ellipse><circle cx="237.668" cy="235.096" r=".901" fill="#4fba75"></circle><circle cx="246.066" cy="219.982" r=".901" fill="#4fba75"></circle><path fill="#57c984" d="M224.555 215.022s1.696.78 3.53 4.048l2.687-3.217s-1.662.563-5.2-2.3ZM242.228 207.483s.103 1.864-1.928 5.014l4.1.87s-1.275-1.205-.398-5.672ZM228.152 232.772a13.94 13.94 0 0 1-.628-1.266c-.179.608-.897 2.053-3.778 3.884l1.068 1.431s1.234-1.3 4.741-2.01a13.835 13.835 0 0 1-1.403-2.04ZM253.65 226.12a13.812 13.812 0 0 1-.421 3.431 9.708 9.708 0 0 1 4.871-.058l.182-1.776s-1.704.117-4.632-1.596ZM255.178 236.877s-1.702-.768-3.563-4.02l-2.66 3.239s1.657-.577 5.218 2.258ZM245.35 244.25s-.856-1.659-.29-5.363l-4.098.882s1.656.579 2.683 5.013ZM257.05 218.82s-1.557 1.03-5.301.869l1.32 3.978s.397-1.71 4.694-3.21ZM249.33 216.167a12.56 12.56 0 0 1 2.134-3.109l-1.42-1.083a8.001 8.001 0 0 1-2.821 2.56 13.689 13.689 0 0 1 2.107 1.632ZM233.363 238.32a13.18 13.18 0 0 1-1.068 3.34l1.679.61a7.547 7.547 0 0 1 1.667-2.98 13.823 13.823 0 0 1-2.278-.97ZM226.392 225.77a13.806 13.806 0 0 1 .266-2.43 13.494 13.494 0 0 1-3.364-.247l-.188 1.776a7.544 7.544 0 0 1 3.286.902ZM233.665 213.899a13.78 13.78 0 0 1 2.172-.877 5.423 5.423 0 0 1-1.863-2.724l-1.01.498a5.836 5.836 0 0 1 .7 3.103Z"></path><path fill="#4fba75" d="M223.998 215.743a.49.49 0 0 1-.635-.715l1.876-2.566a.49.49 0 1 1 .79.577l-1.875 2.566a.484.484 0 0 1-.156.138ZM244.852 208.141a.488.488 0 0 1-.288.06l-3.162-.32a.49.49 0 0 1 .098-.974l3.162.32a.49.49 0 0 1 .19.914ZM258.557 230.7a.49.49 0 0 1-.727-.472l.295-3.165a.49.49 0 1 1 .974.09l-.294 3.165a.49.49 0 0 1-.248.382ZM254.252 239.57a.49.49 0 0 1-.644-.704l1.796-2.623a.49.49 0 0 1 .808.553l-1.796 2.623a.488.488 0 0 1-.164.15ZM246.216 244.55a.493.493 0 0 1-.055.027l-2.942 1.202a.49.49 0 1 1-.37-.906l2.942-1.202a.49.49 0 0 1 .425.879ZM234.78 243.061a.49.49 0 0 1-.442.019l-2.894-1.316a.49.49 0 0 1 .406-.892l2.893 1.317a.49.49 0 0 1 .037.872ZM225.393 237.942a.49.49 0 0 1-.635-.14l-1.871-2.569a.49.49 0 0 1 .791-.576l1.871 2.57a.49.49 0 0 1-.108.683.447.447 0 0 1-.048.032ZM223.21 226.022a.49.49 0 0 1-.726-.488l.396-3.154a.49.49 0 1 1 .972.122l-.396 3.154a.488.488 0 0 1-.247.366ZM252.156 214.093a.49.49 0 0 1-.581-.077l-2.273-2.222a.49.49 0 0 1 .684-.7l2.273 2.222a.49.49 0 0 1-.103.777ZM258.408 221.504a.579.579 0 0 1-.036.018.49.49 0 0 1-.649-.241l-1.324-2.89a.49.49 0 0 1 .89-.407l1.324 2.89a.49.49 0 0 1-.205.63ZM234.499 210.242a.512.512 0 0 1-.04.02l-1.844.83a.49.49 0 1 1-.401-.893l1.844-.83a.49.49 0 0 1 .44.873Z"></path><circle cx="312.893" cy="106.147" r="2.125" fill="#3ca05d"></circle><circle cx="209.416" cy="204.363" r="2.125" fill="#3ca05d"></circle><circle cx="254.706" cy="181.342" r="2.218" fill="#3ca05d"></circle><circle cx="226.749" cy="58.976" r="2.635" fill="#3ca05d"></circle><circle cx="285.048" cy="240.376" r="2.935" fill="#3ca05d"></circle><circle cx="278.354" cy="62.211" r="2.393" fill="#3ca05d"></circle><circle cx="255.466" cy="138.292" r="2.126" fill="#3ca05d"></circle><circle cx="285.048" cy="123.981" r="1.879" fill="#3ca05d"></circle><circle cx="301.107" cy="14.502" r="2.594" fill="#3ca05d"></circle><circle cx="97.683" cy="50.623" r="9.245" fill="#57c984"></circle><path fill="#4fba75" d="M100.436 42.952a9.244 9.244 0 0 1 5.747 11.303c.072-.167.14-.337.202-.51A9.245 9.245 0 1 0 88.982 47.5a9.379 9.379 0 0 0-.169.521 9.244 9.244 0 0 1 11.623-5.07Z"></path><ellipse cx="102.941" cy="49.84" fill="#4fba75" rx=".788" ry="1.051" transform="rotate(-1.753 102.942 49.84)"></ellipse><ellipse cx="97.403" cy="51.812" fill="#4fba75" rx="1.214" ry=".92" transform="rotate(-70.26 97.403 51.812)"></ellipse><ellipse cx="93.371" cy="54.801" fill="#4fba75" rx="1.193" ry=".972" transform="rotate(-49.953 93.37 54.8)"></ellipse><ellipse cx="92.229" cy="47.867" fill="#4fba75" rx="1.235" ry=".972" transform="rotate(-10.26 92.229 47.867)"></ellipse><circle cx="99.429" cy="45.62" r=".736" fill="#4fba75"></circle><ellipse cx="102.035" cy="56.412" fill="#4fba75" rx="1.367" ry="1.025" transform="rotate(-25.26 102.035 56.412)"></ellipse><circle cx="94.885" cy="45.134" r=".605" fill="#4fba75"></circle><circle cx="97.276" cy="56.492" r=".605" fill="#4fba75"></circle><path fill="#57c984" d="M110.364 49.544a6.39 6.39 0 0 1-3.571-.5l.053 2.814s.595-1.017 3.648-1.122ZM104.72 61.14a6.389 6.389 0 0 1-1.228-3.39l-2.462 1.363s1.177.05 2.697 2.7ZM100.732 42.127a9.359 9.359 0 0 1 .875.365c-.177-.387-.448-1.435.207-3.63l-1.171-.257a6.278 6.278 0 0 1-1.52 3.105 9.287 9.287 0 0 1 1.609.417ZM90.73 56.715a9.271 9.271 0 0 1-1.295-1.924 6.516 6.516 0 0 1-2.445 2.172l.69.98a6.111 6.111 0 0 1 3.05-1.228ZM85.224 51.934a6.39 6.39 0 0 1 3.575.471l-.076-2.812s-.587 1.021-3.64 1.15ZM86.963 43.873a6.39 6.39 0 0 1 2.507 2.591l1.689-2.25s-1.094.435-3.566-1.361ZM92.218 61.913a6.39 6.39 0 0 1 2.305-2.773l-2.42-1.436s.552 1.041-.967 3.692ZM97.299 59.862a8.43 8.43 0 0 1 .286 2.515l1.197-.076a5.37 5.37 0 0 1 .303-2.539 9.19 9.19 0 0 1-1.786.1ZM95.65 41.606a8.848 8.848 0 0 1-.929-2.163l-1.119.43a5.066 5.066 0 0 1 .465 2.243 9.279 9.279 0 0 1 1.582-.51ZM104.704 44.903a9.268 9.268 0 0 1 .935 1.349 9.058 9.058 0 0 1 1.814-1.355l-.686-.983a5.064 5.064 0 0 1-2.063.989ZM106.24 54.12a9.249 9.249 0 0 1-.716 1.4 3.64 3.64 0 0 1 2.143.562l.292-.697a3.918 3.918 0 0 1-1.72-1.264Z"></path><path fill="#4fba75" d="M110.329 48.933a.328.328 0 0 1 .636.084l.178 2.126a.328.328 0 1 1-.654.055l-.178-2.126a.325.325 0 0 1 .018-.139ZM103.1 61.961a.328.328 0 0 1 .12-.157l1.744-1.229a.329.329 0 0 1 .378.538l-1.744 1.228a.329.329 0 0 1-.498-.38ZM86.228 56.552a.329.329 0 0 1 .576-.08l1.243 1.734a.329.329 0 0 1-.534.383l-1.243-1.734a.328.328 0 0 1-.042-.303ZM84.509 50.162a.329.329 0 0 1 .636.073l.243 2.12a.329.329 0 0 1-.653.075l-.243-2.12a.328.328 0 0 1 .017-.148ZM86.392 44.102a.333.333 0 0 1 .016-.038l.963-1.904a.328.328 0 1 1 .586.296l-.963 1.905a.329.329 0 0 1-.602-.26ZM92.845 39.826a.328.328 0 0 1 .216-.204l2.046-.606a.329.329 0 0 1 .187.63l-2.046.606a.329.329 0 0 1-.403-.426ZM99.857 38.292a.329.329 0 0 1 .383-.21l2.079.48a.329.329 0 0 1-.148.64l-2.08-.479a.328.328 0 0 1-.245-.394.3.3 0 0 1 .01-.037ZM106.207 43.375a.329.329 0 0 1 .582-.071l1.187 1.773a.329.329 0 0 1-.546.365l-1.187-1.773a.328.328 0 0 1-.036-.294ZM96.778 62.157a.329.329 0 0 1 .33-.217l2.129.127a.329.329 0 1 1-.039.656l-2.13-.127a.329.329 0 0 1-.29-.44ZM90.349 61.15l.01-.026a.329.329 0 0 1 .435-.163l1.943.883a.329.329 0 0 1-.272.598l-1.943-.883a.329.329 0 0 1-.173-.41ZM107.425 56.341l.01-.027.571-1.232a.329.329 0 0 1 .596.276l-.57 1.232a.329.329 0 0 1-.607-.249Z"></path><circle cx="131.586" cy="83.284" r="8.099" fill="#57c984"></circle><path fill="#4fba75" d="M133.998 76.564a8.098 8.098 0 0 1 5.035 9.902c.062-.146.122-.294.176-.446a8.099 8.099 0 1 0-15.245-5.471 8.229 8.229 0 0 0-.148.457 8.098 8.098 0 0 1 10.182-4.442Z"></path><ellipse cx="136.193" cy="82.599" fill="#4fba75" rx=".691" ry=".921" transform="rotate(-1.753 136.193 82.6)"></ellipse><ellipse cx="131.341" cy="84.327" fill="#4fba75" rx="1.064" ry=".806" transform="rotate(-70.26 131.34 84.327)"></ellipse><ellipse cx="127.808" cy="86.945" fill="#4fba75" rx="1.045" ry=".852" transform="rotate(-49.953 127.808 86.945)"></ellipse><ellipse cx="126.808" cy="80.871" fill="#4fba75" rx="1.082" ry=".852" transform="rotate(-10.26 126.808 80.87)"></ellipse><circle cx="133.116" cy="78.902" r=".645" fill="#4fba75"></circle><ellipse cx="135.399" cy="88.356" fill="#4fba75" rx="1.197" ry=".898" transform="rotate(-25.26 135.399 88.356)"></ellipse><circle cx="129.135" cy="78.476" r=".53" fill="#4fba75"></circle><circle cx="131.229" cy="88.426" r=".53" fill="#4fba75"></circle><path fill="#57c984" d="M142.695 82.34a5.597 5.597 0 0 1-3.128-.438l.047 2.464s.52-.89 3.196-.982ZM137.75 92.499a5.597 5.597 0 0 1-1.075-2.97l-2.157 1.193s1.031.044 2.363 2.366ZM134.257 75.842a8.197 8.197 0 0 1 .767.32c-.155-.339-.393-1.257.181-3.18l-1.026-.225a5.5 5.5 0 0 1-1.331 2.72 8.136 8.136 0 0 1 1.41.365ZM125.495 88.622a8.122 8.122 0 0 1-1.135-1.686 5.708 5.708 0 0 1-2.141 1.903l.604.86a5.354 5.354 0 0 1 2.672-1.077ZM120.672 84.433a5.597 5.597 0 0 1 3.131.413l-.066-2.464s-.514.895-3.188 1.008ZM122.195 77.371a5.597 5.597 0 0 1 2.196 2.27l1.48-1.97s-.959.38-3.124-1.193ZM126.799 93.175a5.597 5.597 0 0 1 2.02-2.429l-2.12-1.258s.482.912-.848 3.235ZM131.25 91.378a7.386 7.386 0 0 1 .25 2.203l1.049-.066a4.705 4.705 0 0 1 .266-2.224 8.05 8.05 0 0 1-1.565.087ZM129.804 75.385a7.75 7.75 0 0 1-.812-1.895l-.98.377a4.438 4.438 0 0 1 .407 1.965 8.13 8.13 0 0 1 1.385-.447ZM137.737 78.273a8.12 8.12 0 0 1 .819 1.182 7.935 7.935 0 0 1 1.589-1.186l-.601-.862a4.436 4.436 0 0 1-1.807.866ZM139.082 86.349a8.104 8.104 0 0 1-.627 1.227 3.189 3.189 0 0 1 1.877.491l.257-.61a3.432 3.432 0 0 1-1.507-1.108Z"></path><path fill="#4fba75" d="M142.664 81.805a.288.288 0 0 1 .558.073l.156 1.862a.288.288 0 1 1-.574.048l-.155-1.862a.285.285 0 0 1 .015-.121ZM136.331 93.218a.287.287 0 0 1 .105-.138l1.529-1.076a.288.288 0 0 1 .331.47l-1.528 1.076a.288.288 0 0 1-.437-.332ZM121.551 88.48a.288.288 0 0 1 .505-.071l1.089 1.52a.288.288 0 1 1-.468.334l-1.09-1.519a.288.288 0 0 1-.036-.265ZM120.045 82.88a.288.288 0 0 1 .557.065l.213 1.857a.288.288 0 0 1-.572.066l-.213-1.857a.287.287 0 0 1 .015-.13ZM121.695 77.572a.29.29 0 0 1 .014-.033l.843-1.668a.288.288 0 1 1 .514.26l-.843 1.668a.288.288 0 0 1-.528-.227ZM127.348 73.826a.288.288 0 0 1 .19-.179l1.792-.53a.288.288 0 0 1 .163.552l-1.792.53a.288.288 0 0 1-.353-.373ZM133.49 72.482a.288.288 0 0 1 .336-.183l1.821.42a.288.288 0 0 1-.13.561l-1.82-.42a.288.288 0 0 1-.216-.345.263.263 0 0 1 .01-.033ZM139.054 76.935a.288.288 0 0 1 .51-.062l1.04 1.553a.288.288 0 1 1-.479.32l-1.04-1.553a.287.287 0 0 1-.031-.258ZM130.794 93.389a.288.288 0 0 1 .288-.19l1.866.111a.288.288 0 0 1-.035.575l-1.865-.112a.288.288 0 0 1-.254-.384ZM125.161 92.506l.009-.022a.288.288 0 0 1 .381-.143l1.702.773a.288.288 0 0 1-.238.525l-1.702-.774a.288.288 0 0 1-.152-.359ZM140.12 88.294l.01-.024.5-1.079a.288.288 0 1 1 .522.242l-.5 1.08a.288.288 0 0 1-.532-.219Z"></path><circle cx="148.811" cy="22.976" r="13.773" fill="#57c984"></circle><path fill="#4fba75" d="M152.911 11.549a13.772 13.772 0 0 1 8.563 16.838c.106-.249.207-.5.3-.759a13.773 13.773 0 1 0-25.927-9.304c-.092.258-.174.517-.25.777a13.772 13.772 0 0 1 17.314-7.552Z"></path><ellipse cx="156.644" cy="21.811" fill="#4fba75" rx="1.175" ry="1.566" transform="rotate(-1.753 156.644 21.811)"></ellipse><ellipse cx="148.393" cy="24.749" fill="#4fba75" rx="1.809" ry="1.37" transform="rotate(-70.26 148.393 24.749)"></ellipse><ellipse cx="142.386" cy="29.201" fill="#4fba75" rx="1.777" ry="1.449" transform="rotate(-49.953 142.386 29.2)"></ellipse><ellipse cx="140.685" cy="18.871" fill="#4fba75" rx="1.84" ry="1.449" transform="rotate(-10.26 140.685 18.871)"></ellipse><circle cx="151.412" cy="15.524" r="1.096" fill="#4fba75"></circle><ellipse cx="155.294" cy="31.602" fill="#4fba75" rx="2.036" ry="1.527" transform="rotate(-25.26 155.294 31.602)"></ellipse><circle cx="144.642" cy="14.8" r=".901" fill="#4fba75"></circle><circle cx="148.203" cy="31.72" r=".901" fill="#4fba75"></circle><path fill="#57c984" d="M167.702 21.37s-1.793.521-5.32-.745l.08 4.191s.885-1.515 5.434-1.671ZM159.293 38.646s-1.3-1.341-1.83-5.05l-3.666 2.029s1.753.075 4.018 4.023ZM153.352 10.32a13.94 13.94 0 0 1 1.304.544c-.263-.576-.667-2.138.309-5.41l-1.745-.38s-.08 1.79-2.264 4.625a13.834 13.834 0 0 1 2.396.621ZM138.452 32.053a13.812 13.812 0 0 1-1.93-2.867 9.708 9.708 0 0 1-3.642 3.236l1.028 1.461s1.21-1.205 4.544-1.83ZM130.25 24.93s1.788-.536 5.325.702l-.113-4.19s-.874 1.522-5.422 1.714ZM132.84 12.92s1.734.693 3.734 3.861l2.517-3.352s-1.63.649-5.312-2.028ZM140.669 39.796s.5-1.798 3.434-4.13l-3.604-2.14s.82 1.551-1.442 5.5ZM148.238 36.74a12.56 12.56 0 0 1 .426 3.747l1.783-.112a8.001 8.001 0 0 1 .452-3.783 13.69 13.69 0 0 1-2.661.148ZM145.78 9.543a13.181 13.181 0 0 1-1.382-3.222l-1.667.64a7.547 7.547 0 0 1 .693 3.342 13.823 13.823 0 0 1 2.356-.76ZM159.27 14.455a13.807 13.807 0 0 1 1.393 2.01 13.494 13.494 0 0 1 2.702-2.018l-1.022-1.465a7.544 7.544 0 0 1-3.073 1.473ZM161.557 28.188a13.78 13.78 0 0 1-1.066 2.086 5.423 5.423 0 0 1 3.192.836l.437-1.038a5.836 5.836 0 0 1-2.563-1.884Z"></path><path fill="#4fba75" d="M167.65 20.46a.49.49 0 0 1 .948.124l.265 3.167a.49.49 0 1 1-.975.082l-.265-3.167a.484.484 0 0 1 .026-.206ZM156.88 39.868a.488.488 0 0 1 .178-.234l2.6-1.83a.49.49 0 0 1 .563.8l-2.599 1.83a.49.49 0 0 1-.742-.566ZM131.745 31.81a.49.49 0 0 1 .858-.12l1.852 2.584a.49.49 0 0 1-.796.57l-1.852-2.583a.49.49 0 0 1-.062-.45ZM129.184 22.29a.49.49 0 0 1 .947.11l.362 3.157a.49.49 0 0 1-.972.112l-.363-3.158a.488.488 0 0 1 .026-.22ZM131.99 13.262a.495.495 0 0 1 .023-.056l1.435-2.837a.49.49 0 1 1 .873.442l-1.434 2.836a.49.49 0 0 1-.898-.385ZM141.603 6.892a.49.49 0 0 1 .322-.305l3.048-.901a.49.49 0 0 1 .278.938l-3.048.902a.49.49 0 0 1-.6-.634ZM152.049 4.606a.49.49 0 0 1 .57-.311l3.097.715a.49.49 0 0 1-.22.953l-3.097-.714a.49.49 0 0 1-.367-.587.448.448 0 0 1 .017-.056ZM161.51 12.18a.49.49 0 0 1 .867-.107l1.768 2.641a.49.49 0 0 1-.814.544l-1.768-2.641a.488.488 0 0 1-.053-.438ZM147.463 40.16a.49.49 0 0 1 .49-.324l3.172.19a.49.49 0 0 1-.058.977l-3.173-.19a.49.49 0 0 1-.431-.654ZM137.884 38.659a.571.571 0 0 1 .015-.038.49.49 0 0 1 .648-.243l2.894 1.315a.49.49 0 0 1-.405.891l-2.894-1.315a.49.49 0 0 1-.258-.61ZM163.323 31.496a.532.532 0 0 1 .017-.04l.85-1.836a.49.49 0 1 1 .888.412l-.85 1.834a.49.49 0 0 1-.905-.37Z"></path><circle cx="111.358" cy="100.848" r="2.125" fill="#3ca05d"></circle><circle cx="110.78" cy="2.636" r="2.635" fill="#3ca05d"></circle><circle cx="133.473" cy="55.102" r="2.393" fill="#3ca05d"></circle><circle cx="82.249" cy="85.161" r="1.879" fill="#3ca05d"></circle><circle cx="186.774" cy="36.661" r="2.594" fill="#3ca05d"></circle><path fill="#3ca05d" d="M177.807 413.335a180.018 180.018 0 0 0 37.746-18.037c.817-.518 12.613-8.155 19.374-20.042 1.414-2.486 2.856-5.594 2.004-9.02a10.818 10.818 0 0 0-8.35-7.682c-2.835-.47-5.334.587-8.686 2.004-4.047 1.711-5.095 3.213-7.682 3.006-1.812-.144-4.209-1.114-5.01-3.006-1.568-3.696 3.915-8.642 4.342-9.019 3.492-3.084 5.314-2.007 11.357-5.01a38.864 38.864 0 0 0 11.023-8.351c3.396-3.427 5.32-5.427 5.01-8.017-.31-2.586-2.755-4.99-5.344-5.678-3.512-.935-5.1 1.867-9.019 1.002-2.306-.51-4.98-2.19-5.345-4.343-.365-2.155 1.724-3.972 5.01-7.014 11.803-10.922 13.561-14.042 14.364-15.7 1.128-2.328 2.966-6.122 1.67-10.355-.953-3.116-3.571-6.361-7.014-7.349-7.084-2.031-16.677 5.78-20.376 13.696-3.09 6.614-5.01 11.69-5.01 11.69a16.583 16.583 0 0 1-4.009 6.347c-.925.89-3.027 2.91-4.676 2.339-1.063-.368-1.236-1.569-2.339-4.343-1.646-4.14-2.47-6.21-4.008-7.014-2.33-1.218-5.952.37-8.017 2.338-3.251 3.1-3.298 7.766-3.34 12.025-.039 3.893.621 3.908 1.336 11.023a81.07 81.07 0 0 1 .334 12.025c-.377 7.829-1.648 8.939-2.338 9.353-1.686 1.012-3.836.237-6.347-.668a22.539 22.539 0 0 1-9.019-6.347c-3.439-3.814-2.897-5.27-5.01-6.68a8.535 8.535 0 0 0-6.113-1.061 16.924 16.924 0 0 0-12.258 8.477 28.397 28.397 0 0 0-1.337 2.605c-5.129 11.407-1.146 22.875 1.002 29.06 7.949 22.89 29.792 34.624 36.075 37.746Z"></path><path fill="#4fba75" d="M177.807 413.335s5.32-64.419 57.154-131.905l-.002-.003a11.63 11.63 0 0 1 5.317 6.644c1.29 4.231-.548 8.026-1.67 10.355-.808 1.66-2.57 4.779-14.364 15.7-3.294 3.043-5.382 4.862-5.01 7.014.361 2.153 3.034 3.832 5.344 4.343 3.916.872 5.502-1.93 9.019-1.003 2.589.687 5.029 3.1 5.344 5.679.307 2.589-1.614 4.593-5.01 8.017a38.975 38.975 0 0 1-11.023 8.35c-6.05 3.007-7.868 1.93-11.357 5.011-.427.38-5.91 5.326-4.343 9.019.798 1.893 3.192 2.867 5.01 3.006 2.58.214 3.629-1.29 7.684-3.006 3.35-1.41 5.845-2.468 8.684-2.004a10.827 10.827 0 0 1 8.351 7.683c.845 3.423-.594 6.532-2.004 9.018-6.764 11.886-18.557 19.523-19.374 20.042a179.739 179.739 0 0 1-37.745 18.038"></path><path fill="#4fba75" d="M182.161 389.65a51.311 51.311 0 0 1-8.325-4.443 49.54 49.54 0 0 1-7.417-5.898 29.245 29.245 0 0 1-5.654-7.636 18.572 18.572 0 0 1-1.546-4.509 15.962 15.962 0 0 1-.169-4.724 18.307 18.307 0 0 0 2.35 8.907 30.691 30.691 0 0 0 5.671 7.303 55.723 55.723 0 0 0 7.166 5.97 68.95 68.95 0 0 0 3.89 2.615 71.67 71.67 0 0 0 4.034 2.415ZM199.756 339.686a39.111 39.111 0 0 1-4.31-5.211 40.513 40.513 0 0 1-3.458-5.84 29.811 29.811 0 0 1-2.275-6.418 18.047 18.047 0 0 1-.244-6.765c.028.567.048 1.127.057 1.684a11.612 11.612 0 0 0 .193 1.658l.103.825.184.812c.136.539.22 1.086.4 1.613a40.723 40.723 0 0 0 2.417 6.188 65.174 65.174 0 0 0 3.217 5.853c.57.96 1.183 1.897 1.81 2.823.604.946 1.255 1.858 1.906 2.778Z"></path><path fill="#c0e2cc" d="M182.128 389.296a71.63 71.63 0 0 0 4.664.591c1.556.166 3.115.286 4.675.346a55.723 55.723 0 0 0 9.323-.271 30.69 30.69 0 0 0 8.97-2.242 18.309 18.309 0 0 0 7.349-5.556 15.957 15.957 0 0 1-3.05 3.612 18.561 18.561 0 0 1-4 2.592 29.242 29.242 0 0 1-9.163 2.515 49.537 49.537 0 0 1-9.476.059 51.31 51.31 0 0 1-9.292-1.646ZM199.141 339.131c1.08-.321 2.156-.637 3.214-1.008a55.55 55.55 0 0 0 3.168-1.103 65.112 65.112 0 0 0 6.145-2.617 40.737 40.737 0 0 0 5.723-3.375c.465-.304.87-.682 1.31-1.02l.646-.527.59-.585a11.606 11.606 0 0 0 1.176-1.185c.35-.433.713-.86 1.084-1.29a18.042 18.042 0 0 1-4.369 5.172 29.794 29.794 0 0 1-5.752 3.642 40.514 40.514 0 0 1-6.327 2.459 39.13 39.13 0 0 1-6.608 1.437Z"></path><path fill="#c0e2cc" d="M178.333 409c.656-5.45 1.705-10.845 2.854-16.215.645-2.668 1.22-5.356 1.962-8 .707-2.654 1.392-5.315 2.21-7.937.786-2.632 1.539-5.275 2.458-7.865l1.32-3.904a77.933 77.933 0 0 1 1.38-3.882l2.9-7.715 3.161-7.61c1.022-2.553 2.261-5.008 3.4-7.508 1.173-2.484 2.272-5.004 3.572-7.426l3.77-7.328c1.261-2.44 2.692-4.788 4.044-7.179 2.648-4.815 5.683-9.398 8.613-14.04 1.436-2.341 3.097-4.533 4.668-6.783l4.764-6.712c-6.155 9.085-12.162 18.268-17.425 27.888a301.5 301.5 0 0 0-14.554 29.454l-3.192 7.572-2.93 7.677a77.467 77.467 0 0 0-1.396 3.864l-1.335 3.886c-.92 2.581-1.71 5.205-2.539 7.816-1.66 5.222-3.083 10.518-4.412 15.835-1.293 5.325-2.488 10.683-3.293 16.112Z"></path><path fill="#3ca05d" d="M76.413 413.335a218.657 218.657 0 0 1-45.848-21.91c-.992-.628-15.32-9.904-23.532-24.343-1.717-3.02-3.469-6.795-2.434-10.955a13.14 13.14 0 0 1 10.143-9.332c3.442-.57 6.478.714 10.549 2.435 4.916 2.078 6.19 3.903 9.331 3.651 2.2-.176 5.112-1.353 6.086-3.651 1.904-4.49-4.756-10.498-5.274-10.955-4.242-3.746-6.455-2.438-13.795-6.086A47.206 47.206 0 0 1 8.25 322.046c-4.125-4.162-6.462-6.592-6.086-9.738.376-3.141 3.347-6.06 6.492-6.897 4.265-1.135 6.193 2.268 10.954 1.217 2.8-.618 6.049-2.66 6.492-5.274.444-2.619-2.093-4.826-6.086-8.52-14.335-13.266-16.47-17.056-17.446-19.07-1.37-2.827-3.602-7.436-2.029-12.578 1.158-3.784 4.338-7.727 8.52-8.926 8.605-2.467 20.258 7.02 24.75 16.635 3.754 8.034 6.086 14.2 6.086 14.2a20.143 20.143 0 0 0 4.869 7.71c1.124 1.08 3.677 3.533 5.68 2.84 1.29-.447 1.5-1.905 2.84-5.275 2-5.03 3-7.544 4.869-8.52 2.83-1.479 7.229.449 9.737 2.84 3.95 3.764 4.006 9.433 4.058 14.606.047 4.73-.755 4.747-1.623 13.39a98.47 98.47 0 0 0-.406 14.606c.457 9.509 2.002 10.857 2.84 11.36 2.048 1.23 4.66.288 7.71-.811a27.377 27.377 0 0 0 10.954-7.71c4.177-4.632 3.52-6.4 6.086-8.114 1.51-1.009 3.797-1.77 7.424-1.289a20.557 20.557 0 0 1 14.89 10.297 34.492 34.492 0 0 1 1.624 3.164c6.23 13.856 1.392 27.785-1.217 35.299-9.655 27.802-36.188 42.054-43.82 45.847Z"></path><path fill="#4fba75" d="M76.413 413.335S69.952 335.09 6.99 253.117l.003-.003a14.126 14.126 0 0 0-6.458 8.07c-1.566 5.139.665 9.748 2.029 12.577.98 2.018 3.122 5.804 17.446 19.07 4.001 3.696 6.537 5.905 6.086 8.52-.44 2.615-3.685 4.655-6.491 5.274-4.757 1.06-6.684-2.344-10.955-1.217-3.145.834-6.109 3.764-6.492 6.898-.372 3.144 1.961 5.578 6.086 9.737a47.34 47.34 0 0 0 13.39 10.143c7.347 3.652 9.556 2.345 13.794 6.086.519.463 7.18 6.47 5.275 10.955-.97 2.3-3.877 3.483-6.086 3.652-3.134.259-4.407-1.567-9.332-3.652-4.069-1.713-7.1-2.998-10.55-2.434a13.15 13.15 0 0 0-10.142 9.332c-1.026 4.158.72 7.934 2.434 10.954 8.216 14.438 22.54 23.713 23.532 24.344a218.32 218.32 0 0 0 45.848 21.91"></path><path fill="#4fba75" d="M71.124 384.566c1.665-.934 3.307-1.896 4.9-2.934a83.773 83.773 0 0 0 4.726-3.176 72.614 72.614 0 0 0 8.704-7.251 43.309 43.309 0 0 0 3.769-4.195 31.927 31.927 0 0 0 3.12-4.676 22.24 22.24 0 0 0 2.853-10.819 19.388 19.388 0 0 1-.205 5.739 22.555 22.555 0 0 1-1.877 5.476 34.34 34.34 0 0 1-6.868 9.275 56.843 56.843 0 0 1-9.01 7.164 62.322 62.322 0 0 1-10.112 5.397ZM49.753 323.878c1.6-2.218 3.076-4.506 4.508-6.807a76.279 76.279 0 0 0 3.913-7.106c.32-.596.564-1.224.845-1.837.28-.613.548-1.232.774-1.865.235-.63.501-1.252.711-1.89l.601-1.926a29.771 29.771 0 0 0 1.143-8.005 21.883 21.883 0 0 1-.29 8.219 36.76 36.76 0 0 1-2.77 7.793 50.322 50.322 0 0 1-4.194 7.098 47.408 47.408 0 0 1-5.241 6.326Z"></path><path fill="#c0e2cc" d="M71.165 384.136a62.326 62.326 0 0 1-11.287 1.999 56.851 56.851 0 0 1-11.51-.071 34.34 34.34 0 0 1-11.129-3.055 22.553 22.553 0 0 1-4.858-3.148 19.386 19.386 0 0 1-3.706-4.387 22.239 22.239 0 0 0 8.926 6.747 31.924 31.924 0 0 0 5.341 1.752 43.312 43.312 0 0 0 5.556.972 72.62 72.62 0 0 0 11.323.329 83.792 83.792 0 0 0 5.678-.42c1.895-.168 3.78-.425 5.666-.718ZM50.5 323.203a47.404 47.404 0 0 1-8.029-1.74 50.324 50.324 0 0 1-7.683-2.992 36.757 36.757 0 0 1-6.99-4.42 21.88 21.88 0 0 1-5.303-6.285 29.771 29.771 0 0 0 5.841 5.59L30 314.502c.56.372 1.153.696 1.726 1.047.57.359 1.162.68 1.76.99.6.308 1.18.651 1.8.922a76.284 76.284 0 0 0 7.465 3.173c2.548.926 5.121 1.815 7.75 2.57Z"></path><path fill="#c0e2cc" d="M75.774 408.07c-.977-6.594-2.43-13.103-4-19.57-.845-3.221-1.583-6.468-2.533-9.66-.907-3.202-1.787-6.412-2.826-9.575-1.007-3.172-1.966-6.358-3.083-9.493l-1.622-4.72-.811-2.36-.884-2.334-3.56-9.325-3.876-9.198a366.143 366.143 0 0 0-17.68-35.776c-3.116-5.887-6.714-11.492-10.17-17.184-1.665-2.889-3.604-5.599-5.435-8.381l-5.559-8.309 5.787 8.153c1.908 2.733 3.926 5.395 5.67 8.239 3.559 5.639 7.245 11.206 10.462 17.054 1.641 2.904 3.38 5.757 4.912 8.72l4.579 8.901c1.58 2.942 2.913 6.003 4.34 9.02 1.382 3.036 2.887 6.019 4.128 9.118l3.84 9.245 3.523 9.371.874 2.345.802 2.37 1.603 4.742c1.116 3.145 2.03 6.356 2.987 9.553.992 3.185 1.825 6.417 2.683 9.64.9 3.213 1.6 6.477 2.383 9.718 1.395 6.522 2.67 13.076 3.466 19.695Z"></path><path fill="#2c386c" d="m114.894 213.714 2.321 173.856 11.714.218 18.606-145.702 2.728 146.098 11.295.21s19.401-140.703 10.206-174.938Z"></path><path fill="#f6b98a" d="m150.853 387.706-.24 12.969s15.302 9.757 19.002 2.055l-7.815-4.28a4.645 4.645 0 0 1-2.27-5.224l1.363-5.333Z"></path><path fill="#2c386c" d="M150.613 400.675s-5.776 6.797-1.48 12.108l29.713.552a4.305 4.305 0 0 0 4.459-4.398c-.1-1.773-1.332-3.705-5.342-5.035l-8.348-1.172Z"></path><path fill="#f6b98a" d="M118.47 387.594s1.231 12.577-1.918 13.146a9.713 9.713 0 0 0 11.733-.829l-.611-12.147Z"></path><path fill="#2c386c" d="M116.552 400.74s-7.022 6.356-6.705 11.802l22.38.415a19.61 19.61 0 0 0-3.942-13.046Z"></path><path fill="#707fb7" d="M131.276 219.619c-.241 1.137-.552 2.261-.83 3.4l-.52-.187c.449-1.065.865-2.146 1.35-3.213ZM129.337 226.346c-.43 1.089-.893 2.167-1.347 3.25l-.976-.471c.496-1.04.984-2.086 1.504-3.12ZM126.386 232.733l-1.91 2.985-.912-.643 1.819-2.915 1.003.573zM122.18 238.436a14.593 14.593 0 0 1-2.798 2.222l-.362-.54a16.769 16.769 0 0 0 2.465-2.335ZM116.048 241.877l-.845.058.81-.217.035.159z"></path><path fill="#df7332" d="M172.728 68.977c-3.28 1.858-7.577 6.38-10.502 11.025a49.652 49.652 0 0 0-3.534 7.03c-3.456 7.818-3.095 9.868-5.308 14.778a42.833 42.833 0 0 1-10.092 13.675c-6.16 5.786-8.76 4.954-12.431 9.673-3.308 4.252-5.338 10.249-4.897 15.102 1.148 12.623 19.557 23.473 35.337 23.558 30.255.163 46.49-39.271 47.385-41.532 3.444-8.696 9.184-23.191 2.058-36.539-7.78-14.571-28.036-22.423-38.016-16.77Z"></path><path fill="#f6b98a" d="m168.754 108.225-15.576 13.552s12.64 27.627 32.418 3.986Z"></path><path fill="#e8a77c" d="m168.754 108.225-1.98 1.722c1.744 9.109 7.111 16.095 14.57 17.573a14.827 14.827 0 0 0 2.459.268q.886-.943 1.793-2.025Z"></path><ellipse cx="164.917" cy="96.699" fill="#f6b98a" rx="3.771" ry="7.588" transform="rotate(-9.21 164.917 96.699)"></ellipse><path fill="#2c386c" d="M165.456 101.02q.247 2.915.368 5.823c.097 1.938.145 3.881.266 5.8a12.465 12.465 0 0 0 .134 1.386l.02.083c.006.018-.006-.018-.042-.061a.241.241 0 0 0-.055-.044.425.425 0 0 0-.218-.076c-.252.037-.214.072-.271.101a.254.254 0 0 0-.047.061h-.002s.046-.14.066-.234c.048-.218.085-.451.125-.686.155-.942.253-1.908.38-2.868.226-1.925.476-3.854.775-5.78.04 1.949.016 3.895-.098 5.84a44.74 44.74 0 0 1-.24 2.925 9 9 0 0 1-.12.75 1.88 1.88 0 0 1-.146.46l-.022.042a.64.64 0 0 1-.077.094c-.079.05-.057.117-.343.142-.29-.04-.283-.12-.343-.165a.488.488 0 0 1-.09-.14 1.429 1.429 0 0 1-.084-.263 12.452 12.452 0 0 1-.171-1.511 86.725 86.725 0 0 1 .235-11.678Z"></path><path fill="#c67773" d="M183.581 127.992s15.054 3.191 19.564 50.378c0 0 3.431 25.825-26.339 14.095l-.643-12.733 12.25 1.813-10.163-44.774Z"></path><path fill="#8c3e56" d="m182.498 129.775-4.248 6.996 7.484 32.974a34.489 34.489 0 0 0 4.545-16.008 9.959 9.959 0 0 0-1.41-5.658c-2.6-4.25-5.521-18.81-6.37-18.304Z"></path><path fill="#c67773" d="M155.927 115.03s7.157 28.37 27.654 12.962c0 0 .872 15.776 3.626 20.206a10.082 10.082 0 0 1 1.38 5.846c-.315 6.285-2.397 17.395-12.5 24.172 0 0-7.35 35.02-1.658 51.449 0 0-24.566 13.093-60.369-15.797 0 0 29.728-37.26 18.168-67.579 0 0 11.102-34.953 23.7-31.26Z"></path><path fill="#8c3e56" d="M169.454 177.267s-.657-5.171-2.861-7.925a1.175 1.175 0 0 0-2.095.69 15.933 15.933 0 0 0 .827 5.722s-8.213-.763-11.392-7.475a2.863 2.863 0 0 0-4.217-1.214c-2.093 1.485-4.146 4.077-2.483 8.128a10.586 10.586 0 0 0 7.96 6.259l11.232 2.047 8.03 3.987c.625-4.069 1.207-7.14 1.476-8.498ZM182.254 156.947c3.59-4.542-2.08-10.558-6.895-7.345-4.537 3.028-10.865 3.669-10.865 3.669a14.559 14.559 0 0 0 1.761-4.477 1.2 1.2 0 0 0-1.937-1.127c-3.164 2.61-5.496 7.612-5.496 7.612l-6.776.275-6.465 8.39 14.374-2.238c8.26 5.054 18.866-1.574 18.866-1.574a17.326 17.326 0 0 0 3.433-3.185Z"></path><path fill="#8c3e56" d="M133.742 172.639a166.948 166.948 0 0 0 19.835-6.829l-1.53-10.256-17.318 1.93a54.557 54.557 0 0 1-.987 15.155ZM148.311 115.678c.894 2.344-14.061 38.019-14.061 38.019s.175 1.223.261 1.876c40.51-31.926 13.8-39.895 13.8-39.895Z"></path><path fill="#8c3e56" d="m153.783 158.843-18.89 2.028a59.998 59.998 0 0 1-1.993 15.469c11.056-2.843 22.746-5.442 22.746-5.442ZM148.387 117.172c-.041-.008-.097-.002-.14-.008-9.105 7.366-16.019 29.125-16.019 29.125a40.22 40.22 0 0 1 2.258 8.968c39.377-32.049 13.9-38.085 13.9-38.085Z"></path><path fill="#f6b98a" d="m176.213 180.725-6.674-1.773s-.657-5.172-2.861-7.926a1.175 1.175 0 0 0-2.095.69 15.933 15.933 0 0 0 .827 5.722s-8.213-.763-11.392-7.475a2.863 2.863 0 0 0-4.217-1.214c-2.093 1.486-4.146 4.077-2.483 8.129a10.586 10.586 0 0 0 7.96 6.258l11.232 2.047 10.184 5.056ZM144.528 159.141l14.422-1.336s2.332-5.001 5.496-7.612a1.2 1.2 0 0 1 1.937 1.127 14.557 14.557 0 0 1-1.762 4.477s6.328-.64 10.865-3.668c4.815-3.214 10.485 2.802 6.896 7.345a17.325 17.325 0 0 1-3.433 3.185s-10.607 6.627-18.866 1.573l-14.375 2.238Z"></path><path fill="#c67773" d="M148.301 115.488s28.916 6.848-22.463 44.698l26.596-2.963 1.531 10.256s-52.953 22.733-49.124-1.775 37.316-51.527 43.46-50.216Z"></path><path fill="#e8a77c" d="M164.548 94.013a9.528 9.528 0 0 0 .036 2.473 4.153 4.153 0 0 0 .356 1.12 7.176 7.176 0 0 0 .654 1.077 2.532 2.532 0 0 1-1.073-.816 2.862 2.862 0 0 1-.559-1.268 3.388 3.388 0 0 1 .586-2.586Z"></path><ellipse cx="188.426" cy="98.072" fill="#f6b98a" rx="28.216" ry="20.306" transform="rotate(-78.794 188.426 98.072)"></ellipse><path fill="#020202" d="M179.871 90.626a28.548 28.548 0 0 0 5.894.971 16.33 16.33 0 0 0 2.94-.111 19.21 19.21 0 0 0 2.93-.643 8.228 8.228 0 0 1-2.806 1.289 10.509 10.509 0 0 1-3.102.307 12.829 12.829 0 0 1-3.058-.529 10.373 10.373 0 0 1-2.798-1.284ZM197.133 93.121a34.272 34.272 0 0 0 4.105 4.15 25.775 25.775 0 0 0 2.299 1.76c.791.565 1.636 1.042 2.484 1.581a10.723 10.723 0 0 1-2.822-1.017 12.997 12.997 0 0 1-2.506-1.681 13.639 13.639 0 0 1-2.076-2.186 10.093 10.093 0 0 1-1.484-2.607Z"></path><path fill="#e8a77c" d="M192.119 100.44c.056 1.343.12 2.677.268 3.998a16.772 16.772 0 0 0 .772 3.856 4.622 4.622 0 0 1 .286 1.032 2.375 2.375 0 0 1-.17 1.126 2.134 2.134 0 0 1-.711.896 2.547 2.547 0 0 1-1.02.403 4.267 4.267 0 0 1-2.086-.033 3.596 3.596 0 0 1-1.69-1.13 3.804 3.804 0 0 0 3.653.692 2.644 2.644 0 0 0 .817-.372 1.575 1.575 0 0 0 .504-.674 1.786 1.786 0 0 0 .102-.844 4.234 4.234 0 0 0-.282-.888 14.923 14.923 0 0 1-.658-4.03 21.525 21.525 0 0 1 .215-4.032Z"></path><ellipse cx="184.18" cy="97.703" fill="#020202" rx="2.732" ry="2.327" transform="rotate(-2.89 184.18 97.703)"></ellipse><ellipse cx="185.648" cy="116.696" fill="#a03041" rx="3.714" ry="3.164" transform="rotate(-2.89 185.648 116.696)"></ellipse><path fill="#cc546b" d="M182.633 118.577a3.9 3.9 0 0 0 3.175 1.279 4.132 4.132 0 0 0 2.122-.703 3.395 3.395 0 0 0-4.33-1.451 2.756 2.756 0 0 0-.967.875Z"></path><ellipse cx="198.764" cy="102.501" fill="#020202" rx="2.327" ry="2.732" transform="rotate(-69.896 198.764 102.501)"></ellipse><path fill="#df7332" d="M180.132 82.566s5.299 5.237 6.261 3.53a21.752 21.752 0 0 1-.45-5.055s5.325 6.252 9.232 8.104c0 0-.101-4.157 1.61-5.292 0 0 7.17 8.65 11.16 9.27l2.093-4.8 2.163 1.22s8.722-24.785-17.36-25.087c0 0-5.94-.332-13.726-.705a14.528 14.528 0 0 0-13.47 7.24c-2.503 4.523-1.783 9.745 12.487 11.575Z"></path><path fill="#ccb7aa" d="M194.595 119.412a57.897 57.897 0 0 1 6.255 4.222 57.243 57.243 0 0 1 5.727 4.915 57.244 57.244 0 0 1-6.255-4.222 57.902 57.902 0 0 1-5.727-4.915ZM185.451 122.887a74.08 74.08 0 0 1 1.817 8.343 73.226 73.226 0 0 1 .958 8.484 73.228 73.228 0 0 1-1.817-8.343 74.11 74.11 0 0 1-.958-8.484ZM193.475 127.3a69.132 69.132 0 0 1 4.311 7.027 68.28 68.28 0 0 1 3.546 7.443 68.28 68.28 0 0 1-4.311-7.027 69.089 69.089 0 0 1-3.546-7.443Z"></path><path fill="#139da0" d="M450.419 414.335H21.51a1 1 0 1 1 0-2H450.42a1 1 0 0 1 0 2Z"></path><path fill="#76d3d6" d="m257.015 165.296-11.912-5.583 2.864-9.073 8.926 6.924.122 7.732z"></path><path fill="#f4f187" d="m234.162 115.494 26.495 8.91a2.202 2.202 0 0 1 1.333 2.867l-16.288 43.945-5.643-2.092a2.805 2.805 0 0 1-1.622-3.642c2.725-7.095 8.323-26.937-8.271-39.204Z"></path><path fill="#e82a53" d="M237.265 116.538 232.83 128.5a28.424 28.424 0 0 0-2.665-2.222l4-10.793Z"></path><path fill="#5db8ba" d="m239.522 121.554 18.651 6.913-2.275 6.138-18.65-6.913z"></path><ellipse cx="242.945" cy="133.688" fill="#5db8ba" rx="1.369" ry="1.341" transform="rotate(-69.663 242.945 133.688)"></ellipse><ellipse cx="246.565" cy="135.03" fill="#5db8ba" rx="1.369" ry="1.341" transform="rotate(-69.663 246.565 135.03)"></ellipse><ellipse cx="250.246" cy="136.394" fill="#5db8ba" rx="1.369" ry="1.341" transform="rotate(-69.662 250.247 136.394)"></ellipse><path fill="#63daea" d="m396.537 235.729 12.099 158.448s-8.043 10.593-23.932 2.746l-17.95-151.83-5.59.588-7.356 150.36s-11.868 6.767-22.265-.295l1.112-159.58 63.827-.488a.055.055 0 0 1 .055.05Z"></path><path fill="#26b5bf" d="M332.655 238.619q.138-1.227.26-2.454l63.349-.485q.153 1.46.325 2.923l-21.359 4.296a76.504 76.504 0 0 1-18.87 1.427c-22.645-1.123-23.705-5.707-23.705-5.707Z"></path><path fill="#63daea" d="m331.581 120.973 17.355-5.84 13.85 10.382 16.378-10.381 18.494 6.078a16.398 16.398 0 0 1 6.528 4.037c3.517 3.545 9.717 10.96 19.281 26.167l-14.629 12.068-9.495-11.509s-7.771 42.234-2.773 84.18l-21.34 4.292a76.397 76.397 0 0 1-18.818 1.43c-22.696-1.12-23.757-5.71-23.757-5.71 4.708-41.98-3.335-84.154-3.335-84.154l-9.416 11.573-14.712-11.966c8.786-14.184 14.715-21.628 18.313-25.476a19.584 19.584 0 0 1 8.076-5.171ZM339.913 63.248a25.305 25.305 0 1 1 50.61 0c0 14.464-11.33 26.188-25.305 26.188s-25.305-11.724-25.305-26.188Z"></path><path fill="#874106" d="m342.855 64.72-2.861.614.107 1.913a12.043 12.043 0 0 0 .857 3.837l1.077 2.669s.599.1.85-2.443a52.055 52.055 0 0 0-.03-6.59ZM386.796 69.428c2.51 5.145-2.818 12.935-5.296 12.554-2.31-.355-2.712-7.889-2.747-8.631-.117-2.496-.316-6.718 1.766-7.65 1.868-.837 5.05 1.21 6.277 3.727Z"></path><path fill="#f6b98a" d="M379.734 66.485s3.962 7.769 5.885 8.435c0 0 7.454 7.65-2.942 9.024 0 0-.589 20.008-12.555 22.95v4.868a2.324 2.324 0 0 0 1.976 2.299l7.066 1.073s-16.104 24.324-30.227 0l4.613-1.01a2.324 2.324 0 0 0 1.818-2.06l.434-4.777s-14.712-5.296-13.143-22.755c0 0-8.898-4.688-.624-10.78 0 0 .694.557.862-3.505.054-1.307.054-3.092-.042-5.527 0 0 28.515-12.616 36.88 1.765ZM409.212 163.01l7.405 8.042-20.1 27.637s3.472 7.508 4.037 10.195a.584.584 0 0 0 .878.379c2.87-1.762 12.992-8.995 30.192-31.93 0 0 7.573-8.356-8.866-25.34Z"></path><path fill="#9ce9ef" d="M401.027 209.36c-4.953 8.34-10.934-.45-10.934-.45l-2.52.854a10.743 10.743 0 0 1-10.198-1.642q-.286-.232-.558-.485c-3.335-3.108-1.604-5.736.65-7.48a12.642 12.642 0 0 1 6.76-2.528c11.464-.898 12.487 1.276 12.487 1.276a21.32 21.32 0 0 1 3.965 8.825ZM353.808 396.04v12.849H303a5.781 5.781 0 0 1 3.728-6.424l8.67.833a11.622 11.622 0 0 0 7.504-1.862l8.64-5.69ZM384.669 396.04v12.849h50.806a5.781 5.781 0 0 0-3.727-6.424l-7.594.73a11.622 11.622 0 0 1-8.973-3.008l-6.545-6.01Z"></path><path fill="#874106" d="M384.669 408.889h50.806v3.923h-50.806zM302.968 408.889h50.806v3.923h-50.806z"></path><path fill="#9ce9ef" d="M380.028 83.944v12.829s-4.61 15.909-24.226 10.514c0 0-13.51-3.328-13.2-22.013 0 0 13.74-1.919 37.426-1.33Z"></path><path fill="#63daea" d="M380.028 83.944a10.657 10.657 0 0 1 2.126-4.914 8.977 8.977 0 0 1 2.005-1.859 6.02 6.02 0 0 1 2.544-.92 11.914 11.914 0 0 0-2.163 1.432 14.692 14.692 0 0 0-1.743 1.852 23.607 23.607 0 0 0-1.458 2.123 49.777 49.777 0 0 0-1.31 2.286Z"></path><path fill="#020202" d="M372.525 73.753c-1.194-.126-2.3-.283-3.412-.321a12.277 12.277 0 0 0-3.356.32 3.923 3.923 0 0 1 1.57-.907 5.7 5.7 0 0 1 1.815-.23 6.133 6.133 0 0 1 3.383 1.138ZM352.37 73.753c-1.315-.096-2.55-.23-3.778-.197a11.025 11.025 0 0 0-1.81.194 8.556 8.556 0 0 0-1.769.63 3.767 3.767 0 0 1 1.574-1.237 5.856 5.856 0 0 1 1.984-.404 6.966 6.966 0 0 1 3.798 1.014Z"></path><ellipse cx="369.583" cy="80.192" fill="#020202" rx="1.177" ry="2.428"></ellipse><ellipse cx="349.868" cy="80.192" fill="#020202" rx="1.177" ry="2.428"></ellipse><path fill="#26b5bf" d="M370.119 109.235c9.514 2.02 16.428 6.8 20.22 14.198 9.67 18.84-2.844 47.888-3.383 49.114l-1.496-.654c.131-.294 12.743-29.571 3.425-47.717-3.54-6.898-9.85-11.369-18.766-13.306Z"></path><circle cx="384.96" cy="174.286" r="6.385" fill="#9ce9ef"></circle><circle cx="384.96" cy="174.286" r="3.286" fill="#26b5bf"></circle><path fill="#26b5bf" d="M355.651 109.244c-.67.171-14.524 3.792-14.982 15.129l1.627.065c.384-9.35 11.361-12.98 13.233-13.527Z"></path><path fill="#26b5bf" d="M328.03 164.676a5.499 5.499 0 0 1-1.479-.204l.438-1.576c2.577.716 5.16-1.369 7.413-4.377a54.041 54.041 0 0 1-2.7-10.437c-.088-.745-1.929-17.223 4.169-22.545a7.212 7.212 0 0 1 6.846-1.359 2.614 2.614 0 0 1 1.857 1.106c2.16 2.819 1.382 10.032-2.315 21.439a55.813 55.813 0 0 1-5.994 12c1.093 2.465 2.12 3.494 2.819 3.92a1.419 1.419 0 0 0 1.083.276l.605 1.518a2.788 2.788 0 0 1-2.358-.293 8.698 8.698 0 0 1-3.264-3.937c-2.075 2.567-4.498 4.468-7.12 4.469Zm12.35-39.17a5.033 5.033 0 0 0-3.434 1.263c-5.457 4.762-3.646 20.916-3.627 21.078a56.392 56.392 0 0 0 2.219 9.037 54.21 54.21 0 0 0 5.173-10.682c4.782-14.761 3.387-18.851 2.565-19.924a1.139 1.139 0 0 0-.638-.47l-.124.005-.12-.03a8.102 8.102 0 0 0-2.014-.278Z"></path><circle cx="342.181" cy="164.31" r="1.802" fill="#9ce9ef"></circle><circle cx="325.337" cy="163.196" r="1.802" fill="#9ce9ef"></circle><path fill="#26b5bf" d="M372.525 88.67a32.851 32.851 0 0 1-5.701 2.019 31.186 31.186 0 0 1-5.992 1.008 20.709 20.709 0 0 1-6.086-.387 12.407 12.407 0 0 1-5.437-2.64 15.25 15.25 0 0 0 5.556 2.022 25.642 25.642 0 0 0 5.912.19 45.498 45.498 0 0 0 5.907-.804 47.842 47.842 0 0 0 2.927-.647c.978-.22 1.945-.487 2.914-.76ZM372.921 93.415a32.849 32.849 0 0 1-5.701 2.018 31.192 31.192 0 0 1-5.992 1.008 20.71 20.71 0 0 1-6.087-.387 12.407 12.407 0 0 1-5.436-2.64 15.25 15.25 0 0 0 5.556 2.022 25.646 25.646 0 0 0 5.912.19 45.51 45.51 0 0 0 5.907-.804 47.884 47.884 0 0 0 2.927-.647c.978-.22 1.945-.487 2.914-.76ZM372.921 98.953a32.849 32.849 0 0 1-5.701 2.018 31.192 31.192 0 0 1-5.992 1.008 20.71 20.71 0 0 1-6.087-.387 12.407 12.407 0 0 1-5.436-2.639 15.25 15.25 0 0 0 5.556 2.022 25.646 25.646 0 0 0 5.912.189 45.515 45.515 0 0 0 5.907-.803 47.884 47.884 0 0 0 2.927-.647c.978-.221 1.945-.487 2.914-.76Z"></path><path fill="#f6b98a" d="m261.054 155.4 29.32 14.229 15.57-17.393 13.96 11.353-23.76 21.896a5.823 5.823 0 0 1-7.11.597l-35.294-22.886Z"></path><path fill="#9ce9ef" d="M257.574 165.682c-7.684-.523-7.988-7.365-7.988-7.365l-2.445-1.052a10.743 10.743 0 0 1-6.476-8.046q-.058-.364-.09-.734c-.398-4.541 2.647-5.335 5.488-5.122a12.642 12.642 0 0 1 6.715 2.647c9.118 7.007 8.423 9.307 8.423 9.307a21.32 21.32 0 0 1-2.961 9.21Z"></path><path fill="#e82a53" d="M225.979 130.717a18.99 18.99 0 0 1-2.028-7.389 13.827 13.827 0 0 1 1.552-7.61 13.126 13.126 0 0 1 5.653-5.328 21.316 21.316 0 0 1 3.593-1.429l1.87-.44q.946-.166 1.892-.296a28.726 28.726 0 0 0-6.973 2.848 15.228 15.228 0 0 0-2.932 2.24 11.378 11.378 0 0 0-2.212 2.894 14.533 14.533 0 0 0-1.665 7.095 20.974 20.974 0 0 0 .343 3.733 24.49 24.49 0 0 0 .907 3.682Z"></path><path fill="#e82a53" d="M218.838 130.89a23.938 23.938 0 0 1-2.567-9.325 17.558 17.558 0 0 1 1.967-9.606 16.658 16.658 0 0 1 7.131-6.73 26.63 26.63 0 0 1 9.287-2.727 36.347 36.347 0 0 0-8.798 3.6 18.693 18.693 0 0 0-3.704 2.822 14.362 14.362 0 0 0-2.792 3.653 18.212 18.212 0 0 0-2.094 8.954 31.216 31.216 0 0 0 1.57 9.36ZM239.368 126.258c.774.14 1.529.332 2.284.523a.3.3 0 1 1-.147.583.318.318 0 0 1-.06-.022c-.698-.344-1.398-.687-2.077-1.084ZM243.893 127.423q1.112.343 2.212.72a.56.56 0 0 1-.361 1.06l-.026-.01q-1.08-.428-2.15-.886a.472.472 0 0 1 .325-.884ZM248.29 128.933c.725.276 1.45.55 2.164.853a.521.521 0 0 1-.36.978c-.74-.233-1.47-.494-2.2-.754a.574.574 0 0 1 .385-1.08ZM252.591 130.709c.705.327 1.408.66 2.1 1.022a.162.162 0 0 1-.11.301 49.77 49.77 0 0 1-2.262-.584.395.395 0 1 1 .211-.762.428.428 0 0 1 .061.023Z"></path><path fill="#26b5bf" d="m382.057 240.828.188 1.734-.051.005-.137-1.739zM382.625 246.061l.38 3.499-.256.024-.277-3.509.153-.014zM383.384 253.059l.38 3.499-.46.043-.277-3.509.357-.033zM384.144 260.057l.361 3.5-.627.059-.296-3.507.562-.052zM384.863 267.058l.357 3.501-.742.07-.3-3.506.685-.065zM385.578 274.061l.357 3.501-.857.08-.3-3.506.8-.075zM386.293 281.063l.357 3.501-.972.091-.3-3.506.915-.086zM386.99 288.067l.338 3.502-1.013.095-.319-3.504.994-.093zM387.666 295.072l.339 3.503-1.051.099-.32-3.505 1.032-.097zM388.343 302.078l.338 3.503-1.089.102-.319-3.505 1.07-.1zM389.019 309.084l.339 3.503-1.127.105-.32-3.504 1.108-.104zM388.546 316.2l1.148-.109.33 3.503-1.148.109zM390.345 323.098l.319 3.504-1.11.105-.339-3.503 1.13-.106zM390.984 330.107l.319 3.505-1.073.1-.338-3.502 1.092-.103zM391.622 337.116l.319 3.505-1.034.097-.338-3.503 1.053-.099zM392.26 344.126l.319 3.504-.995.094-.339-3.503 1.015-.095zM392.898 351.135l.3 3.507-.919.086-.357-3.501.976-.092zM393.498 358.148l.3 3.507-.803.075-.358-3.501.861-.081zM394.098 365.161l.299 3.507-.687.064-.358-3.501.746-.07zM394.697 372.174l.297 3.507-.566.053-.36-3.501.629-.059zM395.271 379.189l.278 3.509-.36.034-.381-3.499.463-.044zM395.826 386.207l.277 3.508-.154.015-.38-3.499.257-.024zM396.38 393.224l.138 1.738-.189-1.734.051-.004z"></path></g></g></svg>