<?xml version="1.0" encoding="utf-8"?>
<!-- Generator: Adobe Illustrator 23.0.3, SVG Export Plug-In . SVG Version: 6.00 Build 0)  -->
<svg version="1.1" id="Layer_1" xmlns="http://www.w3.org/2000/svg" xmlns:xlink="http://www.w3.org/1999/xlink" x="0px" y="0px"
	 viewBox="0 0 656 249" enable-background="new 0 0 656 249" xml:space="preserve">
<polygon opacity="0.67" fill="#DEDE5D" enable-background="new    " points="466.1,102.9 290.1,102.9 290.1,146.7 239.4,102.9 
	85.5,102.9 85.5,1 466.1,1 "/>
<polygon opacity="0.67" fill="#B1DADC" enable-background="new    " points="381.5,127.6 205.6,127.6 205.6,171.6 154.9,127.6 
	1,127.6 1,25.7 381.5,25.7 "/>
<polygon opacity="0.67" fill="#D8B9A1" enable-background="new    " points="653,117.1 477.2,117.1 477.2,161 426.3,117.1 
	272.4,117.1 272.4,15.2 653,15.2 "/>
<polygon opacity="0.67" fill="#ACB5DB" enable-background="new    " points="407.9,177.4 232.1,177.4 232.1,221.3 181.4,177.4 
	27.5,177.4 27.5,75.5 407.9,75.5 "/>
<polygon opacity="0.67" fill="#DBACCF" enable-background="new    " points="632.4,169.5 475.6,169.5 475.6,208.7 430.3,169.5 
	293,169.5 293,78.6 632.4,78.6 "/>
<polygon fill="#C7DDB0" points="557.1,195.2 400.3,195.2 400.3,234.4 355,195.2 217.8,195.2 217.8,104.3 557.1,104.3 "/>
<polygon opacity="0.9" enable-background="new    " points="601.9,182.1 350,182.1 350,245.1 277.2,182.1 56.7,182.1 56.7,36.2 
	601.9,36.2 "/>
<g>
	<path fill="#FFFFFF" d="M98.9,120V88.1h-7.3v-6.9h7.3V65.3h7.9v15.9h16.7v6.9h-16.7V119c0,6.4,3.5,8.8,8.9,8.8c2.6,0,5-0.4,7.6-1.9
		v6.7c-2.8,1.5-5.7,2.2-9.5,2.2C105.4,134.7,98.9,130.6,98.9,120z"/>
	<path fill="#FFFFFF" d="M130.4,118.5v-0.1c0-11.3,9.2-17.2,22.5-17.2c6.7,0,11.4,0.9,16.1,2.2v-1.6c0-9.4-5.7-14.3-15.6-14.3
		c-6.3,0-11.1,1.5-16.1,3.8l-2.3-6.4c5.8-2.6,11.4-4.5,19.1-4.5c7.5,0,13.3,2,17.1,5.8c3.7,3.7,5.6,8.8,5.6,15.5v32.3h-7.7V126
		c-3.7,4.7-9.6,8.9-19,8.9C140.1,135,130.4,129.3,130.4,118.5z M169.1,114.6v-5c-3.9-1.2-8.9-2.2-15.3-2.2
		c-9.8,0-15.3,4.2-15.3,10.7v0.1c0,6.6,6.1,10.5,13.3,10.5C161.2,128.7,169.1,122.9,169.1,114.6z"/>
	<path fill="#FFFFFF" d="M191,59.5h7.9V134H191V59.5z"/>
	<path fill="#FFFFFF" d="M214.1,59.5h7.9v51.4l28.5-29.7h9.8l-22.1,22.7L261,134h-9.4l-18.9-24.6l-10.7,10.8V134h-7.9V59.5
		L214.1,59.5L214.1,59.5z"/>
	<path fill="#FFFFFF" d="M270.4,59.5h15.5v27.5c3.5-4.5,8.2-8.8,16.1-8.8c11.7,0,18.6,7.7,18.6,20.3v35.4h-15.6v-30.5
		c0-7.3-3.5-11.1-9.4-11.1s-9.6,3.8-9.6,11.1v30.5h-15.5V59.5z"/>
	<path fill="#FFFFFF" d="M328.1,106.8v-0.1c0-15.6,11.1-28.5,27-28.5c18.3,0,26.6,14.2,26.6,29.7c0,1.2-0.1,2.6-0.1,4.1h-38
		c1.5,7,6.4,10.7,13.3,10.7c5.3,0,8.9-1.6,13.3-5.6l8.9,7.9c-5.1,6.3-12.4,10.2-22.4,10.2C340.2,135.2,328.1,123.6,328.1,106.8z
		 M366.7,102.3c-0.9-6.9-5-11.7-11.5-11.7c-6.4,0-10.7,4.5-11.8,11.7H366.7z"/>
	<path fill="#FFFFFF" d="M387,118.2v-0.1c0-12,9.1-17.4,22.1-17.4c5.6,0,9.5,0.9,13.3,2.2V102c0-6.4-3.9-9.9-11.7-9.9
		c-5.8,0-10.1,1.2-15.1,2.9l-3.9-11.8c6-2.6,12-4.4,21.2-4.4c8.5,0,14.6,2.2,18.4,6.1c4.1,4.1,5.8,10.1,5.8,17.4V134h-15.1v-5.8
		c-3.8,4.2-8.9,6.9-16.5,6.9C395.5,134.9,387,129,387,118.2z M422.7,114.6v-2.8c-2.6-1.2-6.1-2-9.9-2c-6.6,0-10.7,2.6-10.7,7.6v0.1
		c0,4.2,3.5,6.6,8.5,6.6C417.7,124.2,422.7,120.3,422.7,114.6z"/>
	<path fill="#FFFFFF" d="M448.4,59.5h15.5V134h-15.5V59.5z"/>
	<path fill="#FFFFFF" d="M477.9,118.4V92.5h-6.4V79.2h6.6v-14h15.3v14h12.9v13.3h-12.9v23.4c0,3.5,1.5,5.3,5,5.3
		c2.9,0,5.4-0.7,7.6-1.9v12.4c-3.2,1.9-7,3.2-12.3,3.2C484.4,134.7,477.9,131.1,477.9,118.4z"/>
	<path fill="#FFFFFF" d="M514.6,59.5h15.5v27.5c3.5-4.5,8.2-8.8,16.1-8.8c11.7,0,18.6,7.7,18.6,20.3v35.4h-15.5v-30.5
		c0-7.3-3.5-11.1-9.4-11.1s-9.6,3.8-9.6,11.1v30.5h-15.5V59.5H514.6z"/>
</g>
<g opacity="0.75">
	<path fill="#FFFFFF" d="M201.2,154.9c-0.9,0.9-2.2,1.2-3.7,1.2h-2.5v7.6h-1.3v-16.1h3.7c1.5,0,2.8,0.3,3.7,1.2s1.5,1.8,1.5,3.2
		C202.7,153.2,202.1,154,201.2,154.9z M200.2,149.2c-0.6-0.4-1.5-0.7-2.6-0.7h-2.5v6.3h2.5c1.2,0,2-0.3,2.6-0.7
		c0.6-0.4,1.2-1.3,1.2-2.5C201.4,150.5,200.8,149.8,200.2,149.2z"/>
	<path fill="#FFFFFF" d="M230.9,163.5h-1.5l-2-4.8h-7.7l-2,4.8h-1.3l6.9-16.2h0.7L230.9,163.5z M227,157.5l-3.4-8.3l-3.4,8.3H227z"
		/>
	<path fill="#FFFFFF" d="M256.8,163.5h-1.6l-4.8-7.5h-2v7.5H247v-16.1h3.8c3.1,0,5,1.6,5,4.4c0,2.6-1.9,3.9-3.9,4.2L256.8,163.5z
		 M253.4,149.2c-0.9-0.6-1.9-0.7-3.2-0.7h-1.8v6.4h1.8c1.3,0,2.3,0,3.2-0.6s1.2-1.5,1.2-2.5C254.6,150.8,254.3,149.8,253.4,149.2z"
		/>
	<path fill="#FFFFFF" d="M281.9,148.5h-4.8v15.1h-1.3v-15.1H271v-1.2h10.8v1.2H281.9z"/>
	<path fill="#FFFFFF" d="M311.3,163.5h-1.2l-10.8-14.2v14.2H298v-16.1h1.3l10.7,13.9v-13.9h1.3V163.5z"/>
	<path fill="#FFFFFF" d="M338.3,163.5h-8.9v-16.1h8.8v1.2h-7.5v5.8h7.2v1.2h-7.2v6.9h7.6L338.3,163.5L338.3,163.5z"/>
	<path fill="#FFFFFF" d="M365.1,163.5h-1.6l-4.8-7.5h-2v7.5h-1.3v-16.1h3.8c3.1,0,5,1.6,5,4.4c0,2.6-1.9,3.9-3.9,4.2L365.1,163.5z
		 M361.7,149.2c-0.9-0.6-1.9-0.7-3.2-0.7h-1.8v6.4h1.8c1.3,0,2.3,0,3.2-0.6s1.2-1.5,1.2-2.5C362.9,150.8,362.6,149.8,361.7,149.2z"
		/>
	<path fill="#FFFFFF" d="M385.1,163.8c-3.1,0-4.5-2.2-5-2.9l1-0.7c0.6,1,2,2.5,4.1,2.5c2,0,3.8-1.3,3.8-3.4s-2.2-2.9-3.1-3.2
		c-0.9-0.4-2-0.9-2.6-1.2c-0.6-0.3-2.3-1.5-2.3-3.8c0-2.3,2-3.9,4.7-3.9c2.8,0,4.1,1.9,4.2,2l-0.9,0.7c-0.6-0.7-1.6-1.8-3.4-1.8
		s-3.4,1-3.4,2.8s1.3,2.5,2.3,3.1c1.2,0.4,2.9,1.2,3.4,1.5c0.4,0.1,2.3,1.3,2.3,3.8S388.3,163.8,385.1,163.8z"/>
	<path fill="#FFFFFF" d="M419.9,163.5h-1.3v-8h-9.9v8h-1.3v-16.1h1.3v6.9h9.9v-6.9h1.3V163.5L419.9,163.5z"/>
	<path fill="#FFFFFF" d="M439.2,163.5h-1.3v-16.1h1.3V163.5z"/>
	<path fill="#FFFFFF" d="M464.6,154.9c-0.9,0.9-2.2,1.2-3.7,1.2h-2.5v7.6h-1.3v-16.1h3.7c1.5,0,2.8,0.3,3.7,1.2s1.5,1.8,1.5,3.2
		C466.1,153.2,465.5,154,464.6,154.9z M463.6,149.2c-0.6-0.4-1.5-0.7-2.6-0.7h-2.5v6.3h2.5c1.2,0,2-0.3,2.6-0.7
		c0.6-0.4,1.2-1.3,1.2-2.5C464.8,150.5,464.2,149.8,463.6,149.2z"/>
</g>
</svg>
