<svg xmlns="http://www.w3.org/2000/svg" fillRule="evenodd" stroke-linejoin="round" stroke-miterlimit="2" clip-rule="evenodd" viewBox="0 0 64 64" id="menu"><g><rect width="64" height="64" fill="none"></rect><circle cx="32" cy="32" r="26" fill="#3fc1c9"></circle><path fill="#eaeaea" d="M180,754L204,754C205.104,754 206,753.104 206,752C206,750.896 205.104,750 204,750L180,750C178.896,750 178,750.896 178,752C178,753.104 178.896,754 180,754Z" transform="translate(-160 -720)"></path><path fill="#eaeaea" d="M180,754L204,754C205.104,754 206,753.104 206,752C206,750.896 205.104,750 204,750L180,750C178.896,750 178,750.896 178,752C178,753.104 178.896,754 180,754Z" transform="translate(-160 -730)"></path><path fill="#eaeaea" d="M180,754L204,754C205.104,754 206,753.104 206,752C206,750.896 205.104,750 204,750L180,750C178.896,750 178,750.896 178,752C178,753.104 178.896,754 180,754Z" transform="translate(-160 -710)"></path></g></svg>